<svg width="1512" height="982" viewBox="0 0 1512 982" fill="none" xmlns="http://www.w3.org/2000/svg">
<circle cx="351" cy="530" r="205" fill="url(#paint0_radial_2_3)" stroke="#FFB502" stroke-width="6"/>
<path style="mix-blend-mode:lighten" d="M330.844 541.711L114 416.533L164.222 343.311L419.356 490.6L330.844 541.711Z" fill="url(#paint1_linear_2_3)"/>
<path d="M342.111 671.911L195.978 587.556L312.111 520.511L458.244 604.867L342.111 671.911Z" fill="#053054"/>
<path d="M342.111 512.689L195.978 428.333L312.111 361.289L458.244 445.644L342.111 512.689Z" fill="url(#paint2_linear_2_3)"/>
<path d="M458.244 536.133V445.644L342.111 512.689V603.178L458.244 536.133Z" fill="url(#paint3_linear_2_3)"/>
<path d="M195.978 428.333V518.822L342.111 603.178V512.689L195.978 428.333Z" fill="url(#paint4_linear_2_3)"/>
<path d="M285.844 407.156L222.578 443.689V463.267L241.356 474.111V454.533L304.622 418L285.844 407.156Z" fill="#131313" fill-opacity="0.76"/>
<path d="M326.022 430.356L262.755 466.867V486.444L281.533 497.289V477.711L344.8 441.178L326.022 430.356Z" fill="#131313" fill-opacity="0.76"/>
<path d="M366.266 453.578L303 490.089V509.667L321.778 520.511V500.933L385.044 464.422L366.266 453.578Z" fill="#131313" fill-opacity="0.76"/>
<path d="M285.844 407.156V415.044L297.911 421.867L304.622 418L285.844 407.156Z" fill="#A9EBFF"/>
<path d="M229.378 459.222L222.578 463.267L241.356 474.111V465.956L229.378 459.222Z" fill="#A9EBFF"/>
<path d="M285.844 407.156L222.578 443.689V463.267L229.378 459.222V447.667L285.867 415.044L285.844 407.156Z" fill="url(#paint5_linear_2_3)"/>
<path d="M326.022 430.356V438.244L338.089 445.067L344.8 441.178L326.022 430.356Z" fill="#A9EBFF"/>
<path d="M269.578 482.4L262.755 486.444L281.533 497.289V489.133L269.578 482.4Z" fill="#A9EBFF"/>
<path d="M326.022 430.356L262.755 466.867V486.444L269.578 482.4V470.844L326.066 438.244L326.022 430.356Z" fill="url(#paint6_linear_2_3)"/>
<path d="M366.267 453.578V461.467L378.333 468.289L385.044 464.422L366.267 453.578Z" fill="#A9EBFF"/>
<path d="M309.8 505.622L303 509.667L321.778 520.511V512.378L309.8 505.622Z" fill="#A9EBFF"/>
<path d="M366.266 453.578L303 490.089V509.667L309.8 505.622V494.067L366.289 461.467L366.266 453.578Z" fill="url(#paint7_linear_2_3)"/>
<path d="M436.711 610.422L512.911 566.444V532.644L436.711 576.644V610.422Z" fill="url(#paint8_linear_2_3)"/>
<path d="M436.711 576.644L512.911 532.644L436.733 488.667L360.555 532.644L436.711 576.644Z" fill="url(#paint9_linear_2_3)"/>
<path d="M436.711 560.756L485.378 532.644L436.733 504.556L388.067 532.644L436.711 560.756Z" fill="#131313" fill-opacity="0.76"/>
<path d="M436.733 509.667L480.955 535.222L485.378 532.644L436.733 504.556L388.067 532.644L392.489 535.222L436.733 509.667Z" fill="#A9EBFF"/>
<path d="M436.733 490.333L511.467 533.489L512.911 532.644L436.733 488.667L360.555 532.644L361.978 533.489L436.733 490.333Z" fill="#A9EBFF"/>
<path d="M360.533 566.444L436.733 610.422V576.644L360.533 532.644V566.444Z" fill="url(#paint10_linear_2_3)"/>
<path d="M436.711 574.956L511.444 531.8L512.911 532.644L436.711 576.644L360.555 532.644L362 531.822L436.711 574.956Z" fill="#A9EBFF"/>
<path d="M450.839 581.215C451.185 580.582 451.651 580.026 452.209 579.577C452.768 579.128 453.408 578.796 454.093 578.6C454.779 578.404 455.495 578.347 456.202 578.433C456.909 578.52 457.592 578.748 458.212 579.103L478.297 590.907C483.04 593.687 486.979 597.687 489.717 602.506C492.455 607.326 493.896 612.793 493.895 618.359V643.509C493.901 647.144 494.843 650.714 496.629 653.863C498.415 657.013 500.981 659.631 504.072 661.458L651.706 748.036C655.304 750.148 659.306 751.451 663.441 751.858C663.068 755.49 663.213 759.185 662.922 762.839C657.064 762.352 651.387 760.541 646.306 757.538L498.672 670.96C493.933 668.179 489.998 664.177 487.264 659.358C484.529 654.539 483.091 649.072 483.095 643.509V618.444C483.087 614.809 482.141 611.24 480.352 608.094C478.562 604.948 475.991 602.335 472.896 600.516L452.812 588.711C452.196 588.353 451.657 587.874 451.224 587.302C450.791 586.73 450.474 586.077 450.291 585.381C450.108 584.684 450.062 583.957 450.156 583.242C450.25 582.527 450.482 581.838 450.839 581.215V581.215Z" fill="#131313" fill-opacity="0.76"/>
<path d="M475.283 570.104C475.629 569.471 476.095 568.915 476.653 568.466C477.212 568.017 477.852 567.685 478.538 567.489C479.223 567.293 479.94 567.236 480.646 567.322C481.353 567.409 482.036 567.636 482.656 567.992L502.741 579.796C507.484 582.575 511.423 586.576 514.161 591.395C516.9 596.215 518.341 601.682 518.339 607.248V632.398C518.345 636.033 519.288 639.603 521.074 642.752C522.859 645.902 525.426 648.52 528.517 650.347L676.151 736.925C679.749 739.037 683.75 740.34 687.886 740.747C687.512 744.379 687.657 748.074 687.367 751.728C681.509 751.241 675.832 749.43 670.75 746.427L523.117 659.849C518.377 657.068 514.443 653.066 511.708 648.247C508.973 643.428 507.535 637.961 507.539 632.398V607.332C507.532 603.698 506.586 600.129 504.796 596.983C503.006 593.837 500.436 591.223 497.341 589.404L477.256 577.6C476.641 577.241 476.101 576.762 475.668 576.191C475.236 575.619 474.919 574.966 474.735 574.269C474.552 573.573 474.506 572.846 474.6 572.131C474.694 571.416 474.926 570.727 475.283 570.104V570.104Z" fill="#131313" fill-opacity="0.76"/>
<path d="M497.505 554.548C497.851 553.916 498.317 553.359 498.876 552.91C499.434 552.462 500.075 552.129 500.76 551.933C501.445 551.737 502.162 551.68 502.869 551.767C503.576 551.853 504.259 552.081 504.879 552.437L524.963 564.241C529.706 567.02 533.645 571.021 536.384 575.84C539.122 580.659 540.563 586.127 540.562 591.692V616.842C540.567 620.477 541.51 624.047 543.296 627.197C545.082 630.346 547.648 632.965 550.739 634.791L698.373 721.369C701.971 723.481 705.973 724.784 710.108 725.191C709.734 728.823 709.88 732.519 709.589 736.172C703.731 735.685 698.054 733.874 692.973 730.872L545.339 644.294C540.6 641.512 536.665 637.51 533.93 632.691C531.196 627.872 529.758 622.406 529.761 616.842V591.777C529.754 588.142 528.808 584.574 527.018 581.427C525.229 578.281 522.658 575.668 519.563 573.849L499.478 562.045C498.863 561.686 498.323 561.207 497.891 560.635C497.458 560.064 497.141 559.411 496.958 558.714C496.774 558.017 496.728 557.29 496.822 556.576C496.916 555.861 497.148 555.172 497.505 554.548V554.548Z" fill="#131313" fill-opacity="0.76"/>
<path opacity="0.2" d="M420.644 594.222L428.422 598.711V583.089L420.644 578.6V594.222Z" fill="#131313" fill-opacity="0.76"/>
<path opacity="0.4" d="M407.689 586.733L415.466 591.222V575.6L407.689 571.133V586.733Z" fill="#131313" fill-opacity="0.76"/>
<path opacity="0.8" d="M394.733 579.267L402.511 583.756V568.133L394.733 563.644V579.267Z" fill="#131313" fill-opacity="0.76"/>
<path d="M381.8 571.778L389.577 576.267V560.667L381.8 556.178V571.778Z" fill="#131313" fill-opacity="0.76"/>
<path d="M368.844 564.311L376.622 568.8V553.178L368.844 548.689V564.311Z" fill="#131313" fill-opacity="0.76"/>
<path d="M288.733 537.756C288.884 540.61 289.708 543.388 291.137 545.864C292.566 548.339 294.559 550.442 296.956 552C301.4 554.622 305.178 552.489 305.178 547.244C305.022 544.391 304.196 541.615 302.768 539.14C301.339 536.666 299.348 534.562 296.956 533C292.4 530.378 288.733 532.511 288.733 537.756Z" fill="#131313" fill-opacity="0.76"/>
<path d="M272.814 535.273C276.024 533.419 276.025 527.411 272.815 521.852C269.606 516.293 264.402 513.289 261.192 515.142C257.982 516.996 257.982 523.004 261.191 528.563C264.401 534.122 269.605 537.126 272.814 535.273Z" fill="#131313" fill-opacity="0.76"/>
<path d="M228.822 503.156C228.973 506.01 229.797 508.788 231.226 511.264C232.654 513.739 234.648 515.842 237.045 517.4C241.489 520.022 245.267 517.911 245.267 512.667C245.111 509.814 244.285 507.037 242.856 504.563C241.428 502.088 239.437 499.984 237.045 498.422C232.489 495.8 228.822 497.911 228.822 503.156Z" fill="#131313" fill-opacity="0.76"/>
<path d="M292.889 531.956C292.463 532.976 292.251 534.072 292.267 535.178C292.422 538.034 293.249 540.812 294.682 543.288C296.115 545.763 298.112 547.865 300.511 549.422C301.717 550.187 303.13 550.56 304.556 550.489C303.333 553.244 300.4 553.978 296.956 552C294.559 550.442 292.566 548.339 291.137 545.864C289.708 543.388 288.884 540.61 288.733 537.756C288.733 534.222 290.422 532.156 292.889 531.956Z" fill="#A9EBFF"/>
<path d="M262.933 514.644C262.499 515.67 262.287 516.776 262.311 517.889C262.466 520.745 263.294 523.524 264.727 525.999C266.159 528.474 268.157 530.576 270.556 532.133C271.766 532.888 273.175 533.259 274.6 533.2C273.378 535.956 270.445 536.689 267 534.711C264.604 533.153 262.61 531.05 261.181 528.575C259.752 526.099 258.929 523.321 258.778 520.467C258.778 516.933 260.467 514.844 262.933 514.644Z" fill="#A9EBFF"/>
<path d="M232.978 497.356C232.528 498.355 232.293 499.438 232.289 500.533C232.445 503.386 233.271 506.163 234.699 508.637C236.128 511.112 238.119 513.216 240.511 514.778C241.727 515.535 243.147 515.9 244.578 515.822C243.356 518.578 240.4 519.333 236.978 517.333C234.582 515.775 232.588 513.672 231.159 511.197C229.73 508.721 228.906 505.943 228.756 503.089C228.822 499.622 230.511 497.556 232.978 497.356Z" fill="#A9EBFF"/>
<path d="M482.778 433.556L414.8 394.289L468.822 363.111L536.822 402.356L482.778 433.556Z" fill="#053054"/>
<path d="M482.778 359.467L414.8 320.2L468.822 289L536.822 328.267L482.778 359.467Z" fill="url(#paint11_linear_2_3)"/>
<path d="M536.822 370.378V328.267L482.778 359.467V401.578L536.822 370.378Z" fill="url(#paint12_linear_2_3)"/>
<path d="M414.8 320.2V362.311L482.778 401.578V359.467L414.8 320.2Z" fill="url(#paint13_linear_2_3)"/>
<path d="M456.6 310.356L427.156 327.356V336.467L435.911 341.511V332.4L465.333 315.4L456.6 310.356Z" fill="#131313" fill-opacity="0.76"/>
<path d="M475.311 321.156L445.867 338.133V347.244L454.6 352.289V343.178L484.044 326.2L475.311 321.156Z" fill="#131313" fill-opacity="0.76"/>
<path d="M494.022 331.956L464.578 348.956V358.067L473.333 363.111V354L502.756 337L494.022 331.956Z" fill="#131313" fill-opacity="0.76"/>
<path d="M456.6 310.356V314.022L462.222 317.2L465.333 315.4L456.6 310.356Z" fill="#A9EBFF"/>
<path d="M430.333 334.578L427.156 336.467L435.911 341.511V337.711L430.333 334.578Z" fill="#A9EBFF"/>
<path d="M456.6 310.356L427.156 327.356V336.467L430.333 334.578V329.2L456.622 314.022L456.6 310.356Z" fill="url(#paint14_linear_2_3)"/>
<path d="M475.311 321.156V324.822L480.911 328L484.044 326.2L475.311 321.156Z" fill="#A9EBFF"/>
<path d="M449.022 345.378L445.867 347.244L454.6 352.289V348.511L449.022 345.378Z" fill="#A9EBFF"/>
<path d="M475.311 321.156L445.867 338.133V347.244L449.022 345.378V340L475.311 324.822V321.156Z" fill="url(#paint15_linear_2_3)"/>
<path d="M494.022 331.956V335.622L499.644 338.8L502.756 337L494.022 331.956Z" fill="#A9EBFF"/>
<path d="M467.756 356.178L464.578 358.067L473.333 363.111V359.311L467.756 356.178Z" fill="#A9EBFF"/>
<path d="M494.022 331.956L464.578 348.956V358.067L467.756 356.178V350.8L494.044 335.622L494.022 331.956Z" fill="url(#paint16_linear_2_3)"/>
<path d="M173.732 706.955L303.01 677.176C304.03 676.949 305.087 676.942 306.11 677.154C307.133 677.366 308.099 677.793 308.945 678.407C309.791 679.021 310.497 679.807 311.017 680.714C311.537 681.621 311.858 682.628 311.96 683.669L318.963 754.871C319.087 756.105 318.899 757.35 318.416 758.492C317.932 759.634 317.17 760.636 316.198 761.405C315.226 762.175 314.077 762.687 312.855 762.895C311.633 763.103 310.379 763 309.208 762.596L173.195 716.046C172.218 715.712 171.377 715.067 170.802 714.209C170.226 713.351 169.947 712.328 170.008 711.296C170.069 710.265 170.466 709.281 171.139 708.497C171.812 707.713 172.723 707.172 173.732 706.955V706.955Z" fill="url(#paint17_radial_2_3)"/>
<path d="M801.7 525V503.58H818.65V525H814.12V507.36H806.23V525H801.7ZM838.574 516.78C838.574 518.14 838.384 519.35 838.004 520.41C837.644 521.47 837.114 522.37 836.414 523.11C835.734 523.83 834.904 524.38 833.924 524.76C832.944 525.12 831.834 525.3 830.594 525.3C829.454 525.3 828.394 525.12 827.414 524.76C826.454 524.38 825.624 523.83 824.924 523.11C824.224 522.37 823.674 521.47 823.274 520.41C822.894 519.35 822.704 518.14 822.704 516.78C822.704 514.96 823.024 513.43 823.664 512.19C824.304 510.93 825.224 509.97 826.424 509.31C827.624 508.65 829.044 508.32 830.684 508.32C832.224 508.32 833.584 508.65 834.764 509.31C835.944 509.97 836.874 510.93 837.554 512.19C838.234 513.43 838.574 514.96 838.574 516.78ZM827.264 516.78C827.264 517.86 827.374 518.77 827.594 519.51C827.834 520.23 828.204 520.78 828.704 521.16C829.204 521.52 829.854 521.7 830.654 521.7C831.454 521.7 832.094 521.52 832.574 521.16C833.074 520.78 833.434 520.23 833.654 519.51C833.894 518.77 834.014 517.86 834.014 516.78C834.014 515.7 833.894 514.8 833.654 514.08C833.434 513.36 833.074 512.82 832.574 512.46C832.074 512.1 831.424 511.92 830.624 511.92C829.444 511.92 828.584 512.33 828.044 513.15C827.524 513.95 827.264 515.16 827.264 516.78ZM864.962 508.62L858.932 516.48L865.532 525H860.762L854.522 516.69V525H850.352V516.69L844.112 525H839.342L845.942 516.48L839.912 508.62H844.532L850.352 516.57V508.62H854.522V516.57L860.342 508.62H864.962ZM874.593 508.29C876.793 508.29 878.473 508.77 879.633 509.73C880.813 510.67 881.403 512.12 881.403 514.08V525H878.283L877.413 522.78H877.293C876.833 523.36 876.353 523.84 875.853 524.22C875.373 524.6 874.813 524.87 874.173 525.03C873.553 525.21 872.783 525.3 871.863 525.3C870.903 525.3 870.033 525.12 869.253 524.76C868.493 524.38 867.893 523.81 867.453 523.05C867.013 522.27 866.793 521.29 866.793 520.11C866.793 518.37 867.403 517.09 868.623 516.27C869.843 515.43 871.673 514.97 874.113 514.89L876.963 514.8V514.08C876.963 513.22 876.733 512.59 876.273 512.19C875.833 511.79 875.213 511.59 874.413 511.59C873.613 511.59 872.833 511.71 872.073 511.95C871.313 512.17 870.553 512.45 869.793 512.79L868.323 509.76C869.203 509.3 870.173 508.94 871.233 508.68C872.313 508.42 873.433 508.29 874.593 508.29ZM875.223 517.47C873.783 517.51 872.783 517.77 872.223 518.25C871.663 518.73 871.383 519.36 871.383 520.14C871.383 520.82 871.583 521.31 871.983 521.61C872.383 521.89 872.903 522.03 873.543 522.03C874.503 522.03 875.313 521.75 875.973 521.19C876.633 520.61 876.963 519.8 876.963 518.76V517.41L875.223 517.47ZM900.649 525H896.179V511.98H892.069C891.869 514.38 891.619 516.43 891.319 518.13C891.039 519.81 890.679 521.18 890.239 522.24C889.819 523.3 889.279 524.08 888.619 524.58C887.959 525.06 887.149 525.3 886.189 525.3C885.669 525.3 885.199 525.26 884.779 525.18C884.359 525.1 883.979 524.98 883.639 524.82V521.25C883.859 521.33 884.089 521.4 884.329 521.46C884.569 521.52 884.819 521.55 885.079 521.55C885.359 521.55 885.619 521.44 885.859 521.22C886.119 521 886.359 520.61 886.579 520.05C886.819 519.49 887.039 518.72 887.239 517.74C887.439 516.76 887.619 515.53 887.779 514.05C887.959 512.55 888.119 510.74 888.259 508.62H900.649V525ZM902.975 508.62H907.865L910.955 517.83C911.055 518.13 911.135 518.43 911.195 518.73C911.275 519.03 911.335 519.34 911.375 519.66C911.435 519.98 911.475 520.32 911.495 520.68H911.585C911.645 520.16 911.725 519.67 911.825 519.21C911.945 518.73 912.075 518.27 912.215 517.83L915.245 508.62H920.045L913.115 527.1C912.695 528.22 912.145 529.16 911.465 529.92C910.805 530.68 910.035 531.25 909.155 531.63C908.275 532.01 907.315 532.2 906.275 532.2C905.775 532.2 905.335 532.17 904.955 532.11C904.595 532.07 904.275 532.02 903.995 531.96V528.42C904.215 528.46 904.475 528.5 904.775 528.54C905.095 528.58 905.425 528.6 905.765 528.6C906.385 528.6 906.915 528.47 907.355 528.21C907.815 527.95 908.195 527.59 908.495 527.13C908.795 526.69 909.035 526.21 909.215 525.69L909.485 524.88L902.975 508.62ZM938.085 501.57C937.985 502.61 937.695 503.53 937.215 504.33C936.735 505.11 935.985 505.72 934.965 506.16C933.945 506.6 932.575 506.82 930.855 506.82C929.095 506.82 927.715 506.61 926.715 506.19C925.735 505.75 925.035 505.14 924.615 504.36C924.195 503.58 923.945 502.65 923.865 501.57H927.855C927.955 502.67 928.235 503.4 928.695 503.76C929.155 504.12 929.905 504.3 930.945 504.3C931.805 504.3 932.505 504.11 933.045 503.73C933.605 503.33 933.935 502.61 934.035 501.57H938.085ZM926.715 515.1C926.715 515.44 926.695 515.86 926.655 516.36C926.635 516.86 926.605 517.37 926.565 517.89C926.545 518.41 926.515 518.87 926.475 519.27C926.435 519.67 926.405 519.95 926.385 520.11L933.945 508.62H939.315V525H934.995V518.46C934.995 517.92 935.015 517.33 935.055 516.69C935.095 516.03 935.135 515.42 935.175 514.86C935.235 514.28 935.275 513.84 935.295 513.54L927.765 525H922.395V508.62H926.715V515.1ZM950.646 525.3C949.026 525.3 947.646 525.01 946.506 524.43C945.366 523.83 944.496 522.91 943.896 521.67C943.296 520.43 942.996 518.84 942.996 516.9C942.996 514.9 943.336 513.27 944.016 512.01C944.696 510.75 945.636 509.82 946.836 509.22C948.056 508.62 949.456 508.32 951.036 508.32C952.156 508.32 953.126 508.43 953.946 508.65C954.786 508.87 955.516 509.13 956.136 509.43L954.816 512.88C954.116 512.6 953.456 512.37 952.836 512.19C952.236 512.01 951.636 511.92 951.036 511.92C950.256 511.92 949.606 512.11 949.086 512.49C948.566 512.85 948.176 513.4 947.916 514.14C947.676 514.86 947.556 515.77 947.556 516.87C947.556 517.95 947.686 518.85 947.946 519.57C948.226 520.27 948.626 520.8 949.146 521.16C949.666 521.5 950.296 521.67 951.036 521.67C951.976 521.67 952.806 521.55 953.526 521.31C954.246 521.05 954.946 520.7 955.626 520.26V524.07C954.946 524.51 954.226 524.82 953.466 525C952.726 525.2 951.786 525.3 950.646 525.3ZM972.957 511.98H967.587V525H963.117V511.98H957.747V508.62H972.957V511.98ZM982.699 508.29C984.899 508.29 986.579 508.77 987.739 509.73C988.919 510.67 989.509 512.12 989.509 514.08V525H986.389L985.519 522.78H985.399C984.939 523.36 984.459 523.84 983.959 524.22C983.479 524.6 982.919 524.87 982.279 525.03C981.659 525.21 980.889 525.3 979.969 525.3C979.009 525.3 978.139 525.12 977.359 524.76C976.599 524.38 975.999 523.81 975.559 523.05C975.119 522.27 974.899 521.29 974.899 520.11C974.899 518.37 975.509 517.09 976.729 516.27C977.949 515.43 979.779 514.97 982.219 514.89L985.069 514.8V514.08C985.069 513.22 984.839 512.59 984.379 512.19C983.939 511.79 983.319 511.59 982.519 511.59C981.719 511.59 980.939 511.71 980.179 511.95C979.419 512.17 978.659 512.45 977.899 512.79L976.429 509.76C977.309 509.3 978.279 508.94 979.339 508.68C980.419 508.42 981.539 508.29 982.699 508.29ZM983.329 517.47C981.889 517.51 980.889 517.77 980.329 518.25C979.769 518.73 979.489 519.36 979.489 520.14C979.489 520.82 979.689 521.31 980.089 521.61C980.489 521.89 981.009 522.03 981.649 522.03C982.609 522.03 983.419 521.75 984.079 521.19C984.739 520.61 985.069 519.8 985.069 518.76V517.41L983.329 517.47ZM994.294 531L992.914 529.29C993.714 528.93 994.354 528.47 994.834 527.91C995.314 527.37 995.554 526.9 995.554 526.5C995.554 526.32 995.504 526.12 995.404 525.9C995.324 525.7 995.104 525.47 994.744 525.21C994.284 524.87 993.974 524.54 993.814 524.22C993.654 523.88 993.574 523.51 993.574 523.11C993.574 522.49 993.794 522 994.234 521.64C994.694 521.28 995.284 521.1 996.004 521.1C996.584 521.1 997.104 521.26 997.564 521.58C998.044 521.9 998.414 522.34 998.674 522.9C998.954 523.46 999.094 524.11 999.094 524.85C999.094 525.53 998.974 526.18 998.734 526.8C998.494 527.44 998.154 528.03 997.714 528.57C997.294 529.13 996.784 529.62 996.184 530.04C995.604 530.46 994.974 530.78 994.294 531ZM1027.19 508.62V525H1022.72V511.98H1016.78V525H1012.31V508.62H1027.19ZM1046.76 516.78C1046.76 518.14 1046.57 519.35 1046.19 520.41C1045.83 521.47 1045.3 522.37 1044.6 523.11C1043.92 523.83 1043.09 524.38 1042.11 524.76C1041.13 525.12 1040.02 525.3 1038.78 525.3C1037.64 525.3 1036.58 525.12 1035.6 524.76C1034.64 524.38 1033.81 523.83 1033.11 523.11C1032.41 522.37 1031.86 521.47 1031.46 520.41C1031.08 519.35 1030.89 518.14 1030.89 516.78C1030.89 514.96 1031.21 513.43 1031.85 512.19C1032.49 510.93 1033.41 509.97 1034.61 509.31C1035.81 508.65 1037.23 508.32 1038.87 508.32C1040.41 508.32 1041.77 508.65 1042.95 509.31C1044.13 509.97 1045.06 510.93 1045.74 512.19C1046.42 513.43 1046.76 514.96 1046.76 516.78ZM1035.45 516.78C1035.45 517.86 1035.56 518.77 1035.78 519.51C1036.02 520.23 1036.39 520.78 1036.89 521.16C1037.39 521.52 1038.04 521.7 1038.84 521.7C1039.64 521.7 1040.28 521.52 1040.76 521.16C1041.26 520.78 1041.62 520.23 1041.84 519.51C1042.08 518.77 1042.2 517.86 1042.2 516.78C1042.2 515.7 1042.08 514.8 1041.84 514.08C1041.62 513.36 1041.26 512.82 1040.76 512.46C1040.26 512.1 1039.61 511.92 1038.81 511.92C1037.63 511.92 1036.77 512.33 1036.23 513.15C1035.71 513.95 1035.45 515.16 1035.45 516.78ZM1065.33 508.62V525H1060.86V511.98H1054.92V525H1050.45V508.62H1065.33ZM1079.14 508.32C1080.98 508.32 1082.47 509.04 1083.61 510.48C1084.75 511.9 1085.32 514 1085.32 516.78C1085.32 518.64 1085.05 520.21 1084.51 521.49C1083.97 522.75 1083.23 523.7 1082.29 524.34C1081.35 524.98 1080.26 525.3 1079.02 525.3C1078.24 525.3 1077.56 525.2 1076.98 525C1076.42 524.8 1075.94 524.54 1075.54 524.22C1075.14 523.9 1074.79 523.56 1074.49 523.2H1074.25C1074.33 523.58 1074.39 523.98 1074.43 524.4C1074.47 524.8 1074.49 525.2 1074.49 525.6V532.2H1070.02V508.62H1073.65L1074.28 510.75H1074.49C1074.79 510.31 1075.15 509.91 1075.57 509.55C1075.99 509.17 1076.49 508.87 1077.07 508.65C1077.67 508.43 1078.36 508.32 1079.14 508.32ZM1077.7 511.89C1076.92 511.89 1076.3 512.05 1075.84 512.37C1075.38 512.69 1075.04 513.18 1074.82 513.84C1074.62 514.48 1074.51 515.29 1074.49 516.27V516.75C1074.49 517.81 1074.59 518.71 1074.79 519.45C1074.99 520.17 1075.33 520.72 1075.81 521.1C1076.29 521.48 1076.94 521.67 1077.76 521.67C1078.44 521.67 1079 521.48 1079.44 521.1C1079.88 520.72 1080.21 520.16 1080.43 519.42C1080.65 518.68 1080.76 517.78 1080.76 516.72C1080.76 515.12 1080.51 513.92 1080.01 513.12C1079.53 512.3 1078.76 511.89 1077.7 511.89ZM1103.89 516.78C1103.89 518.14 1103.7 519.35 1103.32 520.41C1102.96 521.47 1102.43 522.37 1101.73 523.11C1101.05 523.83 1100.22 524.38 1099.24 524.76C1098.26 525.12 1097.15 525.3 1095.91 525.3C1094.77 525.3 1093.71 525.12 1092.73 524.76C1091.77 524.38 1090.94 523.83 1090.24 523.11C1089.54 522.37 1088.99 521.47 1088.59 520.41C1088.21 519.35 1088.02 518.14 1088.02 516.78C1088.02 514.96 1088.34 513.43 1088.98 512.19C1089.62 510.93 1090.54 509.97 1091.74 509.31C1092.94 508.65 1094.36 508.32 1096 508.32C1097.54 508.32 1098.9 508.65 1100.08 509.31C1101.26 509.97 1102.19 510.93 1102.87 512.19C1103.55 513.43 1103.89 514.96 1103.89 516.78ZM1092.58 516.78C1092.58 517.86 1092.69 518.77 1092.91 519.51C1093.15 520.23 1093.52 520.78 1094.02 521.16C1094.52 521.52 1095.17 521.7 1095.97 521.7C1096.77 521.7 1097.41 521.52 1097.89 521.16C1098.39 520.78 1098.75 520.23 1098.97 519.51C1099.21 518.77 1099.33 517.86 1099.33 516.78C1099.33 515.7 1099.21 514.8 1098.97 514.08C1098.75 513.36 1098.39 512.82 1097.89 512.46C1097.39 512.1 1096.74 511.92 1095.94 511.92C1094.76 511.92 1093.9 512.33 1093.36 513.15C1092.84 513.95 1092.58 515.16 1092.58 516.78ZM1106.59 515.19C1106.59 512.77 1106.89 510.72 1107.49 509.04C1108.09 507.34 1109.04 505.99 1110.34 504.99C1111.64 503.97 1113.34 503.28 1115.44 502.92C1116.5 502.74 1117.57 502.59 1118.65 502.47C1119.75 502.33 1120.88 502.19 1122.04 502.05L1122.55 505.95C1122.05 506.01 1121.5 506.08 1120.9 506.16C1120.3 506.22 1119.69 506.29 1119.07 506.37C1118.47 506.43 1117.89 506.5 1117.33 506.58C1116.77 506.66 1116.26 506.73 1115.8 506.79C1115.06 506.91 1114.41 507.08 1113.85 507.3C1113.29 507.5 1112.82 507.79 1112.44 508.17C1112.06 508.55 1111.76 509.07 1111.54 509.73C1111.34 510.37 1111.21 511.2 1111.15 512.22H1111.36C1111.6 511.84 1111.93 511.46 1112.35 511.08C1112.79 510.7 1113.33 510.38 1113.97 510.12C1114.61 509.86 1115.34 509.73 1116.16 509.73C1117.46 509.73 1118.59 510 1119.55 510.54C1120.51 511.08 1121.25 511.88 1121.77 512.94C1122.29 514 1122.55 515.32 1122.55 516.9C1122.55 518.76 1122.21 520.31 1121.53 521.55C1120.85 522.79 1119.91 523.73 1118.71 524.37C1117.51 524.99 1116.12 525.3 1114.54 525.3C1113.34 525.3 1112.25 525.08 1111.27 524.64C1110.29 524.2 1109.45 523.55 1108.75 522.69C1108.05 521.83 1107.51 520.77 1107.13 519.51C1106.77 518.25 1106.59 516.81 1106.59 515.19ZM1114.81 521.67C1115.45 521.67 1116 521.53 1116.46 521.25C1116.94 520.97 1117.31 520.51 1117.57 519.87C1117.85 519.23 1117.99 518.37 1117.99 517.29C1117.99 515.99 1117.77 514.96 1117.33 514.2C1116.91 513.42 1116.17 513.03 1115.11 513.03C1114.47 513.03 1113.87 513.19 1113.31 513.51C1112.77 513.81 1112.31 514.16 1111.93 514.56C1111.55 514.94 1111.29 515.27 1111.15 515.55C1111.15 516.33 1111.21 517.09 1111.33 517.83C1111.45 518.55 1111.65 519.2 1111.93 519.78C1112.21 520.36 1112.58 520.82 1113.04 521.16C1113.52 521.5 1114.11 521.67 1114.81 521.67ZM1123.9 508.62H1128.79L1131.88 517.83C1131.98 518.13 1132.06 518.43 1132.12 518.73C1132.2 519.03 1132.26 519.34 1132.3 519.66C1132.36 519.98 1132.4 520.32 1132.42 520.68H1132.51C1132.57 520.16 1132.65 519.67 1132.75 519.21C1132.87 518.73 1133 518.27 1133.14 517.83L1136.17 508.62H1140.97L1134.04 527.1C1133.62 528.22 1133.07 529.16 1132.39 529.92C1131.73 530.68 1130.96 531.25 1130.08 531.63C1129.2 532.01 1128.24 532.2 1127.2 532.2C1126.7 532.2 1126.26 532.17 1125.88 532.11C1125.52 532.07 1125.2 532.02 1124.92 531.96V528.42C1125.14 528.46 1125.4 528.5 1125.7 528.54C1126.02 528.58 1126.35 528.6 1126.69 528.6C1127.31 528.6 1127.84 528.47 1128.28 528.21C1128.74 527.95 1129.12 527.59 1129.42 527.13C1129.72 526.69 1129.96 526.21 1130.14 525.69L1130.41 524.88L1123.9 508.62ZM1159.01 501.57C1158.91 502.61 1158.62 503.53 1158.14 504.33C1157.66 505.11 1156.91 505.72 1155.89 506.16C1154.87 506.6 1153.5 506.82 1151.78 506.82C1150.02 506.82 1148.64 506.61 1147.64 506.19C1146.66 505.75 1145.96 505.14 1145.54 504.36C1145.12 503.58 1144.87 502.65 1144.79 501.57H1148.78C1148.88 502.67 1149.16 503.4 1149.62 503.76C1150.08 504.12 1150.83 504.3 1151.87 504.3C1152.73 504.3 1153.43 504.11 1153.97 503.73C1154.53 503.33 1154.86 502.61 1154.96 501.57H1159.01ZM1147.64 515.1C1147.64 515.44 1147.62 515.86 1147.58 516.36C1147.56 516.86 1147.53 517.37 1147.49 517.89C1147.47 518.41 1147.44 518.87 1147.4 519.27C1147.36 519.67 1147.33 519.95 1147.31 520.11L1154.87 508.62H1160.24V525H1155.92V518.46C1155.92 517.92 1155.94 517.33 1155.98 516.69C1156.02 516.03 1156.06 515.42 1156.1 514.86C1156.16 514.28 1156.2 513.84 1156.22 513.54L1148.69 525H1143.32V508.62H1147.64V515.1ZM1178.47 511.98H1173.1V525H1168.63V511.98H1163.26V508.62H1178.47V511.98ZM1187.95 508.32C1189.47 508.32 1190.77 508.61 1191.85 509.19C1192.95 509.77 1193.8 510.61 1194.4 511.71C1195 512.81 1195.3 514.16 1195.3 515.76V517.92H1184.74C1184.78 519.18 1185.15 520.17 1185.85 520.89C1186.57 521.61 1187.56 521.97 1188.82 521.97C1189.88 521.97 1190.84 521.87 1191.7 521.67C1192.56 521.45 1193.45 521.12 1194.37 520.68V524.13C1193.57 524.53 1192.72 524.82 1191.82 525C1190.94 525.2 1189.87 525.3 1188.61 525.3C1186.97 525.3 1185.52 525 1184.26 524.4C1183 523.78 1182.01 522.85 1181.29 521.61C1180.57 520.37 1180.21 518.81 1180.21 516.93C1180.21 515.01 1180.53 513.42 1181.17 512.16C1181.83 510.88 1182.74 509.92 1183.9 509.28C1185.06 508.64 1186.41 508.32 1187.95 508.32ZM1187.98 511.5C1187.12 511.5 1186.4 511.78 1185.82 512.34C1185.26 512.9 1184.93 513.77 1184.83 514.95H1191.1C1191.1 514.29 1190.98 513.7 1190.74 513.18C1190.52 512.66 1190.18 512.25 1189.72 511.95C1189.26 511.65 1188.68 511.5 1187.98 511.5ZM1223.06 512.91C1223.06 513.79 1222.78 514.54 1222.22 515.16C1221.68 515.78 1220.87 516.18 1219.79 516.36V516.48C1220.93 516.62 1221.84 517.01 1222.52 517.65C1223.22 518.29 1223.57 519.11 1223.57 520.11C1223.57 520.81 1223.43 521.46 1223.15 522.06C1222.89 522.66 1222.47 523.18 1221.89 523.62C1221.31 524.06 1220.56 524.4 1219.64 524.64C1218.74 524.88 1217.64 525 1216.34 525H1208.54V508.62H1216.34C1217.62 508.62 1218.76 508.76 1219.76 509.04C1220.78 509.3 1221.58 509.74 1222.16 510.36C1222.76 510.98 1223.06 511.83 1223.06 512.91ZM1218.95 519.87C1218.95 519.23 1218.7 518.77 1218.2 518.49C1217.7 518.19 1216.95 518.04 1215.95 518.04H1213.01V521.91H1216.04C1216.88 521.91 1217.57 521.76 1218.11 521.46C1218.67 521.14 1218.95 520.61 1218.95 519.87ZM1218.53 513.27C1218.53 512.75 1218.33 512.37 1217.93 512.13C1217.53 511.89 1216.94 511.77 1216.16 511.77H1213.01V515.01H1215.65C1216.59 515.01 1217.3 514.88 1217.78 514.62C1218.28 514.34 1218.53 513.89 1218.53 513.27ZM1241.92 512.91C1241.92 513.79 1241.64 514.54 1241.08 515.16C1240.54 515.78 1239.73 516.18 1238.65 516.36V516.48C1239.79 516.62 1240.7 517.01 1241.38 517.65C1242.08 518.29 1242.43 519.11 1242.43 520.11C1242.43 520.81 1242.29 521.46 1242.01 522.06C1241.75 522.66 1241.33 523.18 1240.75 523.62C1240.17 524.06 1239.42 524.4 1238.5 524.64C1237.6 524.88 1236.5 525 1235.2 525H1227.4V508.62H1235.2C1236.48 508.62 1237.62 508.76 1238.62 509.04C1239.64 509.3 1240.44 509.74 1241.02 510.36C1241.62 510.98 1241.92 511.83 1241.92 512.91ZM1237.81 519.87C1237.81 519.23 1237.56 518.77 1237.06 518.49C1236.56 518.19 1235.81 518.04 1234.81 518.04H1231.87V521.91H1234.9C1235.74 521.91 1236.43 521.76 1236.97 521.46C1237.53 521.14 1237.81 520.61 1237.81 519.87ZM1237.39 513.27C1237.39 512.75 1237.19 512.37 1236.79 512.13C1236.39 511.89 1235.8 511.77 1235.02 511.77H1231.87V515.01H1234.51C1235.45 515.01 1236.16 514.88 1236.64 514.62C1237.14 514.34 1237.39 513.89 1237.39 513.27ZM1253.02 508.32C1254.54 508.32 1255.84 508.61 1256.92 509.19C1258.02 509.77 1258.87 510.61 1259.47 511.71C1260.07 512.81 1260.37 514.16 1260.37 515.76V517.92H1249.81C1249.85 519.18 1250.22 520.17 1250.92 520.89C1251.64 521.61 1252.63 521.97 1253.89 521.97C1254.95 521.97 1255.91 521.87 1256.77 521.67C1257.63 521.45 1258.52 521.12 1259.44 520.68V524.13C1258.64 524.53 1257.79 524.82 1256.89 525C1256.01 525.2 1254.94 525.3 1253.68 525.3C1252.04 525.3 1250.59 525 1249.33 524.4C1248.07 523.78 1247.08 522.85 1246.36 521.61C1245.64 520.37 1245.28 518.81 1245.28 516.93C1245.28 515.01 1245.6 513.42 1246.24 512.16C1246.9 510.88 1247.81 509.92 1248.97 509.28C1250.13 508.64 1251.48 508.32 1253.02 508.32ZM1253.05 511.5C1252.19 511.5 1251.47 511.78 1250.89 512.34C1250.33 512.9 1250 513.77 1249.9 514.95H1256.17C1256.17 514.29 1256.05 513.7 1255.81 513.18C1255.59 512.66 1255.25 512.25 1254.79 511.95C1254.33 511.65 1253.75 511.5 1253.05 511.5ZM1270.66 525.3C1269.04 525.3 1267.66 525.01 1266.52 524.43C1265.38 523.83 1264.51 522.91 1263.91 521.67C1263.31 520.43 1263.01 518.84 1263.01 516.9C1263.01 514.9 1263.35 513.27 1264.03 512.01C1264.71 510.75 1265.65 509.82 1266.85 509.22C1268.07 508.62 1269.47 508.32 1271.05 508.32C1272.17 508.32 1273.14 508.43 1273.96 508.65C1274.8 508.87 1275.53 509.13 1276.15 509.43L1274.83 512.88C1274.13 512.6 1273.47 512.37 1272.85 512.19C1272.25 512.01 1271.65 511.92 1271.05 511.92C1270.27 511.92 1269.62 512.11 1269.1 512.49C1268.58 512.85 1268.19 513.4 1267.93 514.14C1267.69 514.86 1267.57 515.77 1267.57 516.87C1267.57 517.95 1267.7 518.85 1267.96 519.57C1268.24 520.27 1268.64 520.8 1269.16 521.16C1269.68 521.5 1270.31 521.67 1271.05 521.67C1271.99 521.67 1272.82 521.55 1273.54 521.31C1274.26 521.05 1274.96 520.7 1275.64 520.26V524.07C1274.96 524.51 1274.24 524.82 1273.48 525C1272.74 525.2 1271.8 525.3 1270.66 525.3ZM1292.97 511.98H1287.6V525H1283.13V511.98H1277.76V508.62H1292.97V511.98ZM1300.31 515.1C1300.31 515.44 1300.29 515.86 1300.25 516.36C1300.23 516.86 1300.2 517.37 1300.16 517.89C1300.14 518.41 1300.11 518.87 1300.07 519.27C1300.03 519.67 1300 519.95 1299.98 520.11L1307.54 508.62H1312.91V525H1308.59V518.46C1308.59 517.92 1308.61 517.33 1308.65 516.69C1308.69 516.03 1308.73 515.42 1308.77 514.86C1308.83 514.28 1308.87 513.84 1308.89 513.54L1301.36 525H1295.99V508.62H1300.31V515.1ZM807.31 546.32C808.49 546.32 809.59 546.48 810.61 546.8C811.65 547.1 812.48 547.57 813.1 548.21C813.74 548.85 814.06 549.67 814.06 550.67C814.06 551.65 813.76 552.43 813.16 553.01C812.58 553.59 811.79 554.01 810.79 554.27V554.42C811.49 554.58 812.12 554.81 812.68 555.11C813.24 555.39 813.68 555.78 814 556.28C814.34 556.76 814.51 557.41 814.51 558.23C814.51 559.13 814.22 559.97 813.64 560.75C813.08 561.51 812.2 562.13 811 562.61C809.82 563.07 808.3 563.3 806.44 563.3C805.56 563.3 804.73 563.26 803.95 563.18C803.17 563.1 802.46 562.99 801.82 562.85C801.18 562.69 800.62 562.5 800.14 562.28V558.59C800.82 558.91 801.65 559.2 802.63 559.46C803.63 559.72 804.69 559.85 805.81 559.85C806.63 559.85 807.36 559.79 808 559.67C808.66 559.55 809.18 559.35 809.56 559.07C809.96 558.79 810.16 558.42 810.16 557.96C810.16 557.52 809.99 557.16 809.65 556.88C809.31 556.58 808.8 556.36 808.12 556.22C807.44 556.08 806.57 556.01 805.51 556.01H803.77V552.92H805.42C806.9 552.92 808.04 552.8 808.84 552.56C809.66 552.32 810.07 551.87 810.07 551.21C810.07 550.69 809.81 550.3 809.29 550.04C808.77 549.76 807.92 549.62 806.74 549.62C805.96 549.62 805.11 549.71 804.19 549.89C803.27 550.07 802.4 550.33 801.58 550.67L800.26 547.55C801.2 547.19 802.23 546.9 803.35 546.68C804.47 546.44 805.79 546.32 807.31 546.32ZM824.701 546.29C826.901 546.29 828.581 546.77 829.741 547.73C830.921 548.67 831.511 550.12 831.511 552.08V563H828.391L827.521 560.78H827.401C826.941 561.36 826.461 561.84 825.961 562.22C825.481 562.6 824.921 562.87 824.281 563.03C823.661 563.21 822.891 563.3 821.971 563.3C821.011 563.3 820.141 563.12 819.361 562.76C818.601 562.38 818.001 561.81 817.561 561.05C817.121 560.27 816.901 559.29 816.901 558.11C816.901 556.37 817.511 555.09 818.731 554.27C819.951 553.43 821.781 552.97 824.221 552.89L827.071 552.8V552.08C827.071 551.22 826.841 550.59 826.381 550.19C825.941 549.79 825.321 549.59 824.521 549.59C823.721 549.59 822.941 549.71 822.181 549.95C821.421 550.17 820.661 550.45 819.901 550.79L818.431 547.76C819.311 547.3 820.281 546.94 821.341 546.68C822.421 546.42 823.541 546.29 824.701 546.29ZM825.331 555.47C823.891 555.51 822.891 555.77 822.331 556.25C821.771 556.73 821.491 557.36 821.491 558.14C821.491 558.82 821.691 559.31 822.091 559.61C822.491 559.89 823.011 560.03 823.651 560.03C824.611 560.03 825.421 559.75 826.081 559.19C826.741 558.61 827.071 557.8 827.071 556.76V555.41L825.331 555.47ZM850.966 546.62V563H846.496V549.98H840.556V563H836.086V546.62H850.966ZM864.776 546.32C866.616 546.32 868.106 547.04 869.246 548.48C870.386 549.9 870.956 552 870.956 554.78C870.956 556.64 870.686 558.21 870.146 559.49C869.606 560.75 868.866 561.7 867.926 562.34C866.986 562.98 865.896 563.3 864.656 563.3C863.876 563.3 863.196 563.2 862.616 563C862.056 562.8 861.576 562.54 861.176 562.22C860.776 561.9 860.426 561.56 860.126 561.2H859.886C859.966 561.58 860.026 561.98 860.066 562.4C860.106 562.8 860.126 563.2 860.126 563.6V570.2H855.656V546.62H859.286L859.916 548.75H860.126C860.426 548.31 860.786 547.91 861.206 547.55C861.626 547.17 862.126 546.87 862.706 546.65C863.306 546.43 863.996 546.32 864.776 546.32ZM863.336 549.89C862.556 549.89 861.936 550.05 861.476 550.37C861.016 550.69 860.676 551.18 860.456 551.84C860.256 552.48 860.146 553.29 860.126 554.27V554.75C860.126 555.81 860.226 556.71 860.426 557.45C860.626 558.17 860.966 558.72 861.446 559.1C861.926 559.48 862.576 559.67 863.396 559.67C864.076 559.67 864.636 559.48 865.076 559.1C865.516 558.72 865.846 558.16 866.066 557.42C866.286 556.68 866.396 555.78 866.396 554.72C866.396 553.12 866.146 551.92 865.646 551.12C865.166 550.3 864.396 549.89 863.336 549.89ZM889.521 554.78C889.521 556.14 889.331 557.35 888.951 558.41C888.591 559.47 888.061 560.37 887.361 561.11C886.681 561.83 885.851 562.38 884.871 562.76C883.891 563.12 882.781 563.3 881.541 563.3C880.401 563.3 879.341 563.12 878.361 562.76C877.401 562.38 876.571 561.83 875.871 561.11C875.171 560.37 874.621 559.47 874.221 558.41C873.841 557.35 873.651 556.14 873.651 554.78C873.651 552.96 873.971 551.43 874.611 550.19C875.251 548.93 876.171 547.97 877.371 547.31C878.571 546.65 879.991 546.32 881.631 546.32C883.171 546.32 884.531 546.65 885.711 547.31C886.891 547.97 887.821 548.93 888.501 550.19C889.181 551.43 889.521 552.96 889.521 554.78ZM878.211 554.78C878.211 555.86 878.321 556.77 878.541 557.51C878.781 558.23 879.151 558.78 879.651 559.16C880.151 559.52 880.801 559.7 881.601 559.7C882.401 559.7 883.041 559.52 883.521 559.16C884.021 558.78 884.381 558.23 884.601 557.51C884.841 556.77 884.961 555.86 884.961 554.78C884.961 553.7 884.841 552.8 884.601 552.08C884.381 551.36 884.021 550.82 883.521 550.46C883.021 550.1 882.371 549.92 881.571 549.92C880.391 549.92 879.531 550.33 878.991 551.15C878.471 551.95 878.211 553.16 878.211 554.78ZM899.875 563.3C898.255 563.3 896.875 563.01 895.735 562.43C894.595 561.83 893.725 560.91 893.125 559.67C892.525 558.43 892.225 556.84 892.225 554.9C892.225 552.9 892.565 551.27 893.245 550.01C893.925 548.75 894.865 547.82 896.065 547.22C897.285 546.62 898.685 546.32 900.265 546.32C901.385 546.32 902.355 546.43 903.175 546.65C904.015 546.87 904.745 547.13 905.365 547.43L904.045 550.88C903.345 550.6 902.685 550.37 902.065 550.19C901.465 550.01 900.865 549.92 900.265 549.92C899.485 549.92 898.835 550.11 898.315 550.49C897.795 550.85 897.405 551.4 897.145 552.14C896.905 552.86 896.785 553.77 896.785 554.87C896.785 555.95 896.915 556.85 897.175 557.57C897.455 558.27 897.855 558.8 898.375 559.16C898.895 559.5 899.525 559.67 900.265 559.67C901.205 559.67 902.035 559.55 902.755 559.31C903.475 559.05 904.175 558.7 904.855 558.26V562.07C904.175 562.51 903.455 562.82 902.695 563C901.955 563.2 901.015 563.3 899.875 563.3ZM922.705 546.62V552.92H928.945V546.62H933.415V563H928.945V556.25H922.705V563H918.235V546.62H922.705ZM944.818 546.29C947.018 546.29 948.698 546.77 949.858 547.73C951.038 548.67 951.628 550.12 951.628 552.08V563H948.508L947.638 560.78H947.518C947.058 561.36 946.578 561.84 946.078 562.22C945.598 562.6 945.038 562.87 944.398 563.03C943.778 563.21 943.008 563.3 942.088 563.3C941.128 563.3 940.258 563.12 939.478 562.76C938.718 562.38 938.118 561.81 937.678 561.05C937.238 560.27 937.018 559.29 937.018 558.11C937.018 556.37 937.628 555.09 938.848 554.27C940.068 553.43 941.898 552.97 944.338 552.89L947.188 552.8V552.08C947.188 551.22 946.958 550.59 946.498 550.19C946.058 549.79 945.438 549.59 944.638 549.59C943.838 549.59 943.058 549.71 942.298 549.95C941.538 550.17 940.778 550.45 940.018 550.79L938.548 547.76C939.428 547.3 940.398 546.94 941.458 546.68C942.538 546.42 943.658 546.29 944.818 546.29ZM945.448 555.47C944.008 555.51 943.008 555.77 942.448 556.25C941.888 556.73 941.608 557.36 941.608 558.14C941.608 558.82 941.808 559.31 942.208 559.61C942.608 559.89 943.128 560.03 943.768 560.03C944.728 560.03 945.538 559.75 946.198 559.19C946.858 558.61 947.188 557.8 947.188 556.76V555.41L945.448 555.47ZM972.533 546.29C974.733 546.29 976.413 546.77 977.573 547.73C978.753 548.67 979.343 550.12 979.343 552.08V563H976.223L975.353 560.78H975.233C974.773 561.36 974.293 561.84 973.793 562.22C973.313 562.6 972.753 562.87 972.113 563.03C971.493 563.21 970.723 563.3 969.803 563.3C968.843 563.3 967.973 563.12 967.193 562.76C966.433 562.38 965.833 561.81 965.393 561.05C964.953 560.27 964.733 559.29 964.733 558.11C964.733 556.37 965.343 555.09 966.563 554.27C967.783 553.43 969.613 552.97 972.053 552.89L974.903 552.8V552.08C974.903 551.22 974.673 550.59 974.213 550.19C973.773 549.79 973.153 549.59 972.353 549.59C971.553 549.59 970.773 549.71 970.013 549.95C969.253 550.17 968.493 550.45 967.733 550.79L966.263 547.76C967.143 547.3 968.113 546.94 969.173 546.68C970.253 546.42 971.373 546.29 972.533 546.29ZM973.163 555.47C971.723 555.51 970.723 555.77 970.163 556.25C969.603 556.73 969.323 557.36 969.323 558.14C969.323 558.82 969.523 559.31 969.923 559.61C970.323 559.89 970.843 560.03 971.483 560.03C972.443 560.03 973.253 559.75 973.913 559.19C974.573 558.61 974.903 557.8 974.903 556.76V555.41L973.163 555.47ZM988.388 546.62V552.92H994.628V546.62H999.098V563H994.628V556.25H988.388V563H983.918V546.62H988.388ZM1015.09 546.62V549.98H1008.25V563H1003.78V546.62H1015.09ZM1031.87 563H1027.4V549.98H1023.29C1023.09 552.38 1022.84 554.43 1022.54 556.13C1022.26 557.81 1021.9 559.18 1021.46 560.24C1021.04 561.3 1020.5 562.08 1019.84 562.58C1019.18 563.06 1018.37 563.3 1017.41 563.3C1016.89 563.3 1016.42 563.26 1016 563.18C1015.58 563.1 1015.2 562.98 1014.86 562.82V559.25C1015.08 559.33 1015.31 559.4 1015.55 559.46C1015.79 559.52 1016.04 559.55 1016.3 559.55C1016.58 559.55 1016.84 559.44 1017.08 559.22C1017.34 559 1017.58 558.61 1017.8 558.05C1018.04 557.49 1018.26 556.72 1018.46 555.74C1018.66 554.76 1018.84 553.53 1019 552.05C1019.18 550.55 1019.34 548.74 1019.48 546.62H1031.87V563ZM1040.86 553.1C1040.86 553.44 1040.84 553.86 1040.8 554.36C1040.78 554.86 1040.75 555.37 1040.71 555.89C1040.69 556.41 1040.66 556.87 1040.62 557.27C1040.58 557.67 1040.55 557.95 1040.53 558.11L1048.09 546.62H1053.46V563H1049.14V556.46C1049.14 555.92 1049.16 555.33 1049.2 554.69C1049.24 554.03 1049.28 553.42 1049.32 552.86C1049.38 552.28 1049.42 551.84 1049.44 551.54L1041.91 563H1036.54V546.62H1040.86V553.1ZM1073.82 539.57C1073.72 540.61 1073.43 541.53 1072.95 542.33C1072.47 543.11 1071.72 543.72 1070.7 544.16C1069.68 544.6 1068.31 544.82 1066.59 544.82C1064.83 544.82 1063.45 544.61 1062.45 544.19C1061.47 543.75 1060.77 543.14 1060.35 542.36C1059.93 541.58 1059.68 540.65 1059.6 539.57H1063.59C1063.69 540.67 1063.97 541.4 1064.43 541.76C1064.89 542.12 1065.64 542.3 1066.68 542.3C1067.54 542.3 1068.24 542.11 1068.78 541.73C1069.34 541.33 1069.67 540.61 1069.77 539.57H1073.82ZM1062.45 553.1C1062.45 553.44 1062.43 553.86 1062.39 554.36C1062.37 554.86 1062.34 555.37 1062.3 555.89C1062.28 556.41 1062.25 556.87 1062.21 557.27C1062.17 557.67 1062.14 557.95 1062.12 558.11L1069.68 546.62H1075.05V563H1070.73V556.46C1070.73 555.92 1070.75 555.33 1070.79 554.69C1070.83 554.03 1070.87 553.42 1070.91 552.86C1070.97 552.28 1071.01 551.84 1071.03 551.54L1063.5 563H1058.13V546.62H1062.45V553.1ZM1086.38 563.3C1084.76 563.3 1083.38 563.01 1082.24 562.43C1081.1 561.83 1080.23 560.91 1079.63 559.67C1079.03 558.43 1078.73 556.84 1078.73 554.9C1078.73 552.9 1079.07 551.27 1079.75 550.01C1080.43 548.75 1081.37 547.82 1082.57 547.22C1083.79 546.62 1085.19 546.32 1086.77 546.32C1087.89 546.32 1088.86 546.43 1089.68 546.65C1090.52 546.87 1091.25 547.13 1091.87 547.43L1090.55 550.88C1089.85 550.6 1089.19 550.37 1088.57 550.19C1087.97 550.01 1087.37 549.92 1086.77 549.92C1085.99 549.92 1085.34 550.11 1084.82 550.49C1084.3 550.85 1083.91 551.4 1083.65 552.14C1083.41 552.86 1083.29 553.77 1083.29 554.87C1083.29 555.95 1083.42 556.85 1083.68 557.57C1083.96 558.27 1084.36 558.8 1084.88 559.16C1085.4 559.5 1086.03 559.67 1086.77 559.67C1087.71 559.67 1088.54 559.55 1089.26 559.31C1089.98 559.05 1090.68 558.7 1091.36 558.26V562.07C1090.68 562.51 1089.96 562.82 1089.2 563C1088.46 563.2 1087.52 563.3 1086.38 563.3ZM1105.87 546.62H1110.79L1104.31 554.48L1111.36 563H1106.29L1099.6 554.69V563H1095.13V546.62H1099.6V554.57L1105.87 546.62ZM1128 554.78C1128 556.14 1127.81 557.35 1127.43 558.41C1127.07 559.47 1126.54 560.37 1125.84 561.11C1125.16 561.83 1124.33 562.38 1123.35 562.76C1122.37 563.12 1121.26 563.3 1120.02 563.3C1118.88 563.3 1117.82 563.12 1116.84 562.76C1115.88 562.38 1115.05 561.83 1114.35 561.11C1113.65 560.37 1113.1 559.47 1112.7 558.41C1112.32 557.35 1112.13 556.14 1112.13 554.78C1112.13 552.96 1112.45 551.43 1113.09 550.19C1113.73 548.93 1114.65 547.97 1115.85 547.31C1117.05 546.65 1118.47 546.32 1120.11 546.32C1121.65 546.32 1123.01 546.65 1124.19 547.31C1125.37 547.97 1126.3 548.93 1126.98 550.19C1127.66 551.43 1128 552.96 1128 554.78ZM1116.69 554.78C1116.69 555.86 1116.8 556.77 1117.02 557.51C1117.26 558.23 1117.63 558.78 1118.13 559.16C1118.63 559.52 1119.28 559.7 1120.08 559.7C1120.88 559.7 1121.52 559.52 1122 559.16C1122.5 558.78 1122.86 558.23 1123.08 557.51C1123.32 556.77 1123.44 555.86 1123.44 554.78C1123.44 553.7 1123.32 552.8 1123.08 552.08C1122.86 551.36 1122.5 550.82 1122 550.46C1121.5 550.1 1120.85 549.92 1120.05 549.92C1118.87 549.92 1118.01 550.33 1117.47 551.15C1116.95 551.95 1116.69 553.16 1116.69 554.78ZM1152.33 546.62V563H1148.16V554.96C1148.16 554.16 1148.17 553.38 1148.19 552.62C1148.23 551.86 1148.28 551.16 1148.34 550.52H1148.25L1143.72 563H1140.36L1135.77 550.49H1135.65C1135.73 551.15 1135.78 551.86 1135.8 552.62C1135.84 553.36 1135.86 554.18 1135.86 555.08V563H1131.69V546.62H1138.02L1142.1 557.72L1146.24 546.62H1152.33ZM1167.39 555.35C1167.23 554.13 1167.07 552.87 1166.91 551.57C1166.75 550.27 1166.62 548.98 1166.52 547.7C1166.42 546.42 1166.37 545.19 1166.37 544.01V541.67H1171.44V544.01C1171.44 545.21 1171.39 546.46 1171.29 547.76C1171.19 549.06 1171.06 550.36 1170.9 551.66C1170.74 552.94 1170.57 554.17 1170.39 555.35H1167.39ZM1168.89 563.33C1168.07 563.33 1167.43 563.1 1166.97 562.64C1166.51 562.18 1166.28 561.52 1166.28 560.66C1166.28 559.86 1166.52 559.21 1167 558.71C1167.48 558.21 1168.11 557.96 1168.89 557.96C1169.71 557.96 1170.34 558.2 1170.78 558.68C1171.24 559.14 1171.47 559.8 1171.47 560.66C1171.47 561.44 1171.23 562.08 1170.75 562.58C1170.27 563.08 1169.65 563.33 1168.89 563.33Z" fill="#9B9B9B"/>
<path d="M787.302 461.19L786.981 462.793L789.158 463.225C790.252 463.435 791.373 463.526 791.373 463.526L791.577 461.903C790.858 461.841 790.142 461.743 789.433 461.609L787.302 461.19Z" fill="#FBE366"/>
<path d="M795.222 451.425C795.222 451.425 797.706 448.539 800.893 448.637C803.744 448.716 800.932 451.353 797.09 453.775L795.222 451.425Z" fill="#F7B2A0"/>
<path d="M759.938 459.194C757.447 459.645 756.608 461.707 757.82 464.927C759.669 469.868 769.732 472.702 778.491 471.917C788.443 471.02 797.687 453.591 797.687 453.591C797.687 453.591 798.001 451.275 795.72 450.882C795.72 450.882 785.84 461.353 775.98 462.355C771.155 462.872 765.196 458.245 759.938 459.194Z" fill="#EDA503"/>
<path d="M770.913 460.293C775.043 463.441 778.557 471.118 780.209 496.223C780.563 501.741 748.491 503.076 748.373 497.532C748.085 482.8 750.609 476.746 754.824 463.467C756.004 459.868 762.764 454.01 770.913 460.293Z" fill="#FFB502"/>
<path d="M802.125 474.05C802.125 474.05 807.199 467.702 806.911 470.542C806.622 473.382 807.75 475.045 803.515 476.707L802.125 474.05Z" fill="#F7B2A0"/>
<path d="M770.873 461.713C765.301 462.505 764.003 465.568 764.593 468.958C765.484 474.155 768.179 482.381 777.344 486.328C786.509 490.274 804.131 476.661 804.131 476.661C804.131 476.661 804.879 474.443 802.728 473.638C802.728 473.638 787.374 481.622 780.15 476.328C776.662 473.769 776.157 460.98 770.873 461.713Z" fill="#FFB502"/>
<path d="M752.136 570.093C750.065 568.666 750.058 568.365 750.36 567.671C750.631 567.04 750.953 566.431 751.324 565.852L747.226 564.582C746.867 565.831 746.647 567.115 746.571 568.411C746.918 568.686 749.698 570.905 752.136 570.093Z" fill="#FBC6B4"/>
<path d="M746.557 568.411C746.547 568.388 746.531 568.368 746.511 568.352C745.246 571.86 750.307 572.482 753.107 572.194C755.906 571.906 752.136 570.093 752.136 570.093C749.698 570.905 746.918 568.686 746.557 568.411Z" fill="#FFB502"/>
<path d="M746 564.196C745.961 566.055 750.504 567.855 751.356 566.664C758.666 556.447 764.285 536.787 766.225 528.835C766.31 528.482 766.402 528.181 766.487 527.847C767.582 524.352 768.795 524.712 771.549 509.123C772.453 504.084 771.686 495.844 771.686 495.844L764.77 494.842L748.891 492.414C745.109 498.403 746.879 512.526 747.193 518.344C747.488 523.259 748.354 531.093 748.295 534.994C748.033 548.607 746.184 551.827 746 564.196Z" fill="#9B9B9B"/>
<path d="M773.955 571.166C771.627 570.145 771.575 569.857 771.732 569.105C771.897 568.438 772.103 567.783 772.348 567.141L768.094 566.644C767.967 567.938 767.987 569.242 768.153 570.532C768.539 570.741 771.686 572.416 773.955 571.166Z" fill="#FBC6B4"/>
<path d="M768.153 570.545L768.08 570.486C767.484 574.183 772.565 573.856 775.292 573.064C778.019 572.272 773.981 571.166 773.981 571.166C771.686 572.416 768.539 570.741 768.153 570.545Z" fill="#FFB502"/>
<path d="M759.604 521.198C760.797 525.982 763.452 530.917 763.452 537.631C763.452 551.29 764.763 554.314 766.776 566.513C766.999 567.927 770.001 568.817 771.621 568.476C771.843 568.447 772.054 568.364 772.237 568.234C772.372 568.176 772.48 568.068 772.538 567.933C777.822 556.559 781.376 537.173 781.848 529.045C782.123 524.235 781.999 524.83 781.848 507.677C781.802 502.546 779.56 494.587 779.56 494.587L758.207 495.242C755.559 501.891 758.233 515.543 759.604 521.198Z" fill="#27355C"/>
<path d="M771.621 568.49C771.843 568.46 772.054 568.377 772.237 568.247C775.469 559.248 776.826 549.68 778.045 541.414C779.068 534.398 780.202 526.42 780.242 518.586C780.242 510.006 778.871 502.447 776.111 496.106C776.099 496.075 776.08 496.048 776.056 496.025C776.033 496.002 776.005 495.984 775.975 495.972C775.944 495.96 775.912 495.954 775.879 495.954C775.846 495.955 775.814 495.962 775.784 495.975C775.723 496.002 775.676 496.05 775.649 496.111C775.622 496.171 775.619 496.239 775.639 496.302C778.373 502.572 779.763 510.085 779.737 518.586C779.737 526.394 778.576 534.346 777.554 541.362C776.334 549.7 774.918 559.425 771.621 568.49Z" fill="#131313" fill-opacity="0.76"/>
<path d="M773.318 462.512C773.318 462.512 767.562 469.77 770.552 482.283C770.552 482.283 772.709 490.196 779.697 489.482L781.008 501.119C781.008 501.119 766.822 507.166 747.062 497.63C747.062 497.63 745.462 478.952 755.368 462.289C755.368 462.289 757.447 459.109 759.781 458.362C759.781 458.362 748.242 477.61 757.047 479.305C765.851 481 770.912 460.293 770.912 460.293L773.318 462.512Z" fill="#9B9B9B"/>
<path d="M762.318 453.932C762.318 453.932 760.803 460.293 762.055 461.785C763.308 463.278 769.922 461.785 769.634 459.397C769.369 457.416 768.946 455.459 768.369 453.546L762.318 453.932Z" fill="#FBC6B4"/>
<path d="M758.587 447.374C758.587 452.976 761.728 457.518 765.596 457.518C767.333 457.518 771.201 457.996 772.427 456.484C773.928 454.625 773.941 449.861 773.082 446.89C771.116 440.051 768.185 437.793 764.311 437.793C760.436 437.793 758.587 441.765 758.587 447.374Z" fill="#FBC6B4"/>
<path d="M765.222 458.173C762.783 458.297 758.712 457.453 756.463 452.466C754.405 447.884 755.591 440.306 760.194 437.976C761.659 437.256 763.264 436.867 764.897 436.835C766.529 436.804 768.149 437.13 769.641 437.793C773.876 439.802 773.332 442.374 772.473 442.793C770.69 443.67 769.287 442.276 769.641 444.71C769.916 446.582 769.772 450.725 768.028 450.974C766.284 451.222 764.796 451.229 765.222 453.749C765.537 455.66 767.674 458.042 765.222 458.173Z" fill="#000644"/>
<path d="M768.683 445.993C768.683 445.993 778.242 440.456 775.502 437.727C773.273 435.508 765.72 438.441 765.72 438.441L768.683 445.993Z" fill="#EDA503"/>
<path d="M771.771 441.032C770.854 446.111 766.487 448.886 755.513 451.811C755.513 451.811 749.986 441.994 757.112 436.759C763.393 432.151 772.374 437.675 771.771 441.032Z" fill="#FFB502"/>
<path d="M825.03 462H822.33V453.21C821.17 453.61 820.08 453.94 819.06 454.2C818.06 454.44 816.94 454.56 815.7 454.56C813.7 454.56 812.15 454.1 811.05 453.18C809.95 452.24 809.4 450.89 809.4 449.13V440.58H812.1V448.74C812.1 449.9 812.4 450.77 813 451.35C813.62 451.91 814.61 452.19 815.97 452.19C817.15 452.19 818.21 452.08 819.15 451.86C820.09 451.64 821.15 451.34 822.33 450.96V440.58H825.03V462ZM841.597 448.14H836.347V462H833.737V448.14H828.547V445.92H841.597V448.14ZM858.452 453.93C858.452 455.27 858.272 456.46 857.912 457.5C857.572 458.52 857.072 459.39 856.412 460.11C855.772 460.83 854.982 461.38 854.042 461.76C853.122 462.12 852.092 462.3 850.952 462.3C849.892 462.3 848.912 462.12 848.012 461.76C847.112 461.38 846.332 460.83 845.672 460.11C845.012 459.39 844.492 458.52 844.112 457.5C843.752 456.46 843.572 455.27 843.572 453.93C843.572 452.15 843.872 450.65 844.472 449.43C845.072 448.19 845.932 447.25 847.052 446.61C848.172 445.95 849.502 445.62 851.042 445.62C852.502 445.62 853.782 445.95 854.882 446.61C856.002 447.25 856.872 448.19 857.492 449.43C858.132 450.65 858.452 452.15 858.452 453.93ZM846.302 453.93C846.302 455.19 846.462 456.29 846.782 457.23C847.122 458.15 847.642 458.86 848.342 459.36C849.042 459.86 849.932 460.11 851.012 460.11C852.092 460.11 852.982 459.86 853.682 459.36C854.382 458.86 854.892 458.15 855.212 457.23C855.552 456.29 855.722 455.19 855.722 453.93C855.722 452.65 855.552 451.56 855.212 450.66C854.872 449.76 854.352 449.07 853.652 448.59C852.972 448.09 852.082 447.84 850.982 447.84C849.342 447.84 848.152 448.38 847.412 449.46C846.672 450.54 846.302 452.03 846.302 453.93ZM861.676 454.95V451.89H870.316V454.95H861.676ZM885.543 448.14H880.293V462H877.683V448.14H872.493V445.92H885.543V448.14ZM902.397 453.93C902.397 455.27 902.217 456.46 901.857 457.5C901.517 458.52 901.017 459.39 900.357 460.11C899.717 460.83 898.927 461.38 897.987 461.76C897.067 462.12 896.037 462.3 894.897 462.3C893.837 462.3 892.857 462.12 891.957 461.76C891.057 461.38 890.277 460.83 889.617 460.11C888.957 459.39 888.437 458.52 888.057 457.5C887.697 456.46 887.517 455.27 887.517 453.93C887.517 452.15 887.817 450.65 888.417 449.43C889.017 448.19 889.877 447.25 890.997 446.61C892.117 445.95 893.447 445.62 894.987 445.62C896.447 445.62 897.727 445.95 898.827 446.61C899.947 447.25 900.817 448.19 901.437 449.43C902.077 450.65 902.397 452.15 902.397 453.93ZM890.247 453.93C890.247 455.19 890.407 456.29 890.727 457.23C891.067 458.15 891.587 458.86 892.287 459.36C892.987 459.86 893.877 460.11 894.957 460.11C896.037 460.11 896.927 459.86 897.627 459.36C898.327 458.86 898.837 458.15 899.157 457.23C899.497 456.29 899.667 455.19 899.667 453.93C899.667 452.65 899.497 451.56 899.157 450.66C898.817 449.76 898.297 449.07 897.597 448.59C896.917 448.09 896.027 447.84 894.927 447.84C893.287 447.84 892.097 448.38 891.357 449.46C890.617 450.54 890.247 452.03 890.247 453.93ZM928.579 445.92V462H925.939V448.17H917.629V462H914.989V445.92H928.579ZM947.69 453.93C947.69 455.27 947.51 456.46 947.15 457.5C946.81 458.52 946.31 459.39 945.65 460.11C945.01 460.83 944.22 461.38 943.28 461.76C942.36 462.12 941.33 462.3 940.19 462.3C939.13 462.3 938.15 462.12 937.25 461.76C936.35 461.38 935.57 460.83 934.91 460.11C934.25 459.39 933.73 458.52 933.35 457.5C932.99 456.46 932.81 455.27 932.81 453.93C932.81 452.15 933.11 450.65 933.71 449.43C934.31 448.19 935.17 447.25 936.29 446.61C937.41 445.95 938.74 445.62 940.28 445.62C941.74 445.62 943.02 445.95 944.12 446.61C945.24 447.25 946.11 448.19 946.73 449.43C947.37 450.65 947.69 452.15 947.69 453.93ZM935.54 453.93C935.54 455.19 935.7 456.29 936.02 457.23C936.36 458.15 936.88 458.86 937.58 459.36C938.28 459.86 939.17 460.11 940.25 460.11C941.33 460.11 942.22 459.86 942.92 459.36C943.62 458.86 944.13 458.15 944.45 457.23C944.79 456.29 944.96 455.19 944.96 453.93C944.96 452.65 944.79 451.56 944.45 450.66C944.11 449.76 943.59 449.07 942.89 448.59C942.21 448.09 941.32 447.84 940.22 447.84C938.58 447.84 937.39 448.38 936.65 449.46C935.91 450.54 935.54 452.03 935.54 453.93ZM973.684 445.92V462H951.874V445.92H954.514V459.78H961.444V445.92H964.084V459.78H971.044V445.92H973.684ZM991.067 462H988.397V448.11H983.657C983.457 450.65 983.207 452.82 982.907 454.62C982.607 456.4 982.227 457.85 981.767 458.97C981.307 460.09 980.757 460.91 980.117 461.43C979.477 461.95 978.727 462.21 977.867 462.21C977.607 462.21 977.347 462.19 977.087 462.15C976.847 462.13 976.647 462.08 976.487 462V460.02C976.607 460.06 976.737 460.09 976.877 460.11C977.017 460.13 977.157 460.14 977.297 460.14C977.737 460.14 978.137 459.96 978.497 459.6C978.857 459.24 979.177 458.69 979.457 457.95C979.757 457.21 980.027 456.28 980.267 455.16C980.507 454.02 980.717 452.68 980.897 451.14C981.077 449.6 981.237 447.86 981.377 445.92H991.067V462ZM1010.15 453.93C1010.15 455.27 1009.97 456.46 1009.61 457.5C1009.27 458.52 1008.77 459.39 1008.11 460.11C1007.47 460.83 1006.68 461.38 1005.74 461.76C1004.82 462.12 1003.79 462.3 1002.65 462.3C1001.59 462.3 1000.61 462.12 999.711 461.76C998.811 461.38 998.031 460.83 997.371 460.11C996.711 459.39 996.191 458.52 995.811 457.5C995.451 456.46 995.271 455.27 995.271 453.93C995.271 452.15 995.571 450.65 996.171 449.43C996.771 448.19 997.631 447.25 998.751 446.61C999.871 445.95 1001.2 445.62 1002.74 445.62C1004.2 445.62 1005.48 445.95 1006.58 446.61C1007.7 447.25 1008.57 448.19 1009.19 449.43C1009.83 450.65 1010.15 452.15 1010.15 453.93ZM998.001 453.93C998.001 455.19 998.161 456.29 998.481 457.23C998.821 458.15 999.341 458.86 1000.04 459.36C1000.74 459.86 1001.63 460.11 1002.71 460.11C1003.79 460.11 1004.68 459.86 1005.38 459.36C1006.08 458.86 1006.59 458.15 1006.91 457.23C1007.25 456.29 1007.42 455.19 1007.42 453.93C1007.42 452.65 1007.25 451.56 1006.91 450.66C1006.57 449.76 1006.05 449.07 1005.35 448.59C1004.67 448.09 1003.78 447.84 1002.68 447.84C1001.04 447.84 999.851 448.38 999.111 449.46C998.371 450.54 998.001 452.03 998.001 453.93ZM1025.38 445.92V452.61H1034.11V445.92H1036.75V462H1034.11V454.83H1025.38V462H1022.74V445.92H1025.38ZM1048.05 445.62C1049.43 445.62 1050.61 445.92 1051.59 446.52C1052.59 447.12 1053.35 447.97 1053.87 449.07C1054.41 450.15 1054.68 451.42 1054.68 452.88V454.47H1043.67C1043.71 456.29 1044.17 457.68 1045.05 458.64C1045.95 459.58 1047.2 460.05 1048.8 460.05C1049.82 460.05 1050.72 459.96 1051.5 459.78C1052.3 459.58 1053.12 459.3 1053.96 458.94V461.25C1053.14 461.61 1052.33 461.87 1051.53 462.03C1050.73 462.21 1049.78 462.3 1048.68 462.3C1047.16 462.3 1045.81 461.99 1044.63 461.37C1043.47 460.75 1042.56 459.83 1041.9 458.61C1041.26 457.37 1040.94 455.86 1040.94 454.08C1040.94 452.32 1041.23 450.81 1041.81 449.55C1042.41 448.29 1043.24 447.32 1044.3 446.64C1045.38 445.96 1046.63 445.62 1048.05 445.62ZM1048.02 447.78C1046.76 447.78 1045.76 448.19 1045.02 449.01C1044.3 449.81 1043.87 450.93 1043.73 452.37H1051.92C1051.92 451.45 1051.78 450.65 1051.5 449.97C1051.22 449.29 1050.79 448.76 1050.21 448.38C1049.65 447.98 1048.92 447.78 1048.02 447.78ZM1078.29 448.14H1073.04V462H1070.43V448.14H1065.24V445.92H1078.29V448.14ZM1087.54 445.65C1089.5 445.65 1090.95 446.08 1091.89 446.94C1092.83 447.8 1093.3 449.17 1093.3 451.05V462H1091.38L1090.87 459.72H1090.75C1090.29 460.3 1089.81 460.79 1089.31 461.19C1088.83 461.57 1088.27 461.85 1087.63 462.03C1087.01 462.21 1086.25 462.3 1085.35 462.3C1084.39 462.3 1083.52 462.13 1082.74 461.79C1081.98 461.45 1081.38 460.93 1080.94 460.23C1080.5 459.51 1080.28 458.61 1080.28 457.53C1080.28 455.93 1080.91 454.7 1082.17 453.84C1083.43 452.96 1085.37 452.48 1087.99 452.4L1090.72 452.31V451.35C1090.72 450.01 1090.43 449.08 1089.85 448.56C1089.27 448.04 1088.45 447.78 1087.39 447.78C1086.55 447.78 1085.75 447.91 1084.99 448.17C1084.23 448.41 1083.52 448.69 1082.86 449.01L1082.05 447.03C1082.75 446.65 1083.58 446.33 1084.54 446.07C1085.5 445.79 1086.5 445.65 1087.54 445.65ZM1088.32 454.23C1086.32 454.31 1084.93 454.63 1084.15 455.19C1083.39 455.75 1083.01 456.54 1083.01 457.56C1083.01 458.46 1083.28 459.12 1083.82 459.54C1084.38 459.96 1085.09 460.17 1085.95 460.17C1087.31 460.17 1088.44 459.8 1089.34 459.06C1090.24 458.3 1090.69 457.14 1090.69 455.58V454.14L1088.32 454.23ZM1107.78 445.92H1110.66L1103.79 453.66L1111.23 462H1108.17L1100.91 453.84V462H1098.27V445.92H1100.91V453.72L1107.78 445.92ZM1115.02 462.33C1114.36 462.33 1113.85 462.14 1113.49 461.76C1113.13 461.36 1112.95 460.8 1112.95 460.08C1112.95 459.42 1113.14 458.88 1113.52 458.46C1113.9 458.04 1114.4 457.83 1115.02 457.83C1115.68 457.83 1116.19 458.03 1116.55 458.43C1116.91 458.81 1117.09 459.36 1117.09 460.08C1117.09 460.74 1116.9 461.28 1116.52 461.7C1116.14 462.12 1115.64 462.33 1115.02 462.33ZM1121.85 462.33C1121.19 462.33 1120.68 462.14 1120.32 461.76C1119.96 461.36 1119.78 460.8 1119.78 460.08C1119.78 459.42 1119.97 458.88 1120.35 458.46C1120.73 458.04 1121.23 457.83 1121.85 457.83C1122.51 457.83 1123.02 458.03 1123.38 458.43C1123.74 458.81 1123.92 459.36 1123.92 460.08C1123.92 460.74 1123.73 461.28 1123.35 461.7C1122.97 462.12 1122.47 462.33 1121.85 462.33ZM1128.67 462.33C1128.01 462.33 1127.5 462.14 1127.14 461.76C1126.78 461.36 1126.6 460.8 1126.6 460.08C1126.6 459.42 1126.79 458.88 1127.17 458.46C1127.55 458.04 1128.05 457.83 1128.67 457.83C1129.33 457.83 1129.84 458.03 1130.2 458.43C1130.56 458.81 1130.74 459.36 1130.74 460.08C1130.74 460.74 1130.55 461.28 1130.17 461.7C1129.79 462.12 1129.29 462.33 1128.67 462.33Z" fill="#9B9B9B"/>
<path d="M787.302 461.19L786.981 462.793L789.158 463.225C790.252 463.435 791.373 463.526 791.373 463.526L791.577 461.903C790.858 461.841 790.142 461.743 789.433 461.609L787.302 461.19Z" fill="#FBE366"/>
<path d="M795.222 451.425C795.222 451.425 797.706 448.539 800.893 448.637C803.744 448.716 800.932 451.353 797.09 453.775L795.222 451.425Z" fill="#F7B2A0"/>
<path d="M759.938 459.194C757.447 459.645 756.608 461.707 757.82 464.927C759.669 469.868 769.732 472.702 778.491 471.917C788.443 471.02 797.687 453.591 797.687 453.591C797.687 453.591 798.001 451.275 795.72 450.882C795.72 450.882 785.84 461.353 775.98 462.355C771.155 462.872 765.196 458.245 759.938 459.194Z" fill="#EDA503"/>
<path d="M770.913 460.293C775.043 463.441 778.557 471.118 780.209 496.223C780.563 501.741 748.491 503.076 748.373 497.532C748.085 482.8 750.609 476.746 754.824 463.467C756.004 459.868 762.764 454.01 770.913 460.293Z" fill="#FFB502"/>
<path d="M802.125 474.05C802.125 474.05 807.199 467.702 806.911 470.542C806.622 473.382 807.75 475.045 803.515 476.707L802.125 474.05Z" fill="#F7B2A0"/>
<path d="M770.873 461.713C765.301 462.505 764.003 465.568 764.593 468.958C765.484 474.155 768.179 482.381 777.344 486.328C786.509 490.274 804.131 476.661 804.131 476.661C804.131 476.661 804.879 474.443 802.728 473.638C802.728 473.638 787.374 481.622 780.15 476.328C776.662 473.769 776.157 460.98 770.873 461.713Z" fill="#FFB502"/>
<path d="M752.136 570.093C750.065 568.666 750.058 568.365 750.36 567.671C750.631 567.04 750.953 566.431 751.324 565.852L747.226 564.582C746.867 565.831 746.647 567.115 746.571 568.411C746.918 568.686 749.698 570.905 752.136 570.093Z" fill="#FBC6B4"/>
<path d="M746.557 568.411C746.547 568.388 746.531 568.368 746.511 568.352C745.246 571.86 750.307 572.482 753.107 572.194C755.906 571.906 752.136 570.093 752.136 570.093C749.698 570.905 746.918 568.686 746.557 568.411Z" fill="#FFB502"/>
<path d="M746 564.196C745.961 566.055 750.504 567.855 751.356 566.664C758.666 556.447 764.285 536.787 766.225 528.835C766.31 528.482 766.402 528.181 766.487 527.847C767.582 524.352 768.795 524.712 771.549 509.123C772.453 504.084 771.686 495.844 771.686 495.844L764.77 494.842L748.891 492.414C745.109 498.403 746.879 512.526 747.193 518.344C747.488 523.259 748.354 531.093 748.295 534.994C748.033 548.607 746.184 551.827 746 564.196Z" fill="#1C2745"/>
<path d="M773.955 571.166C771.627 570.145 771.575 569.857 771.732 569.105C771.897 568.438 772.103 567.783 772.348 567.141L768.094 566.644C767.967 567.938 767.987 569.242 768.153 570.532C768.539 570.741 771.686 572.416 773.955 571.166Z" fill="#FBC6B4"/>
<path d="M768.153 570.545L768.08 570.486C767.484 574.183 772.565 573.856 775.292 573.064C778.019 572.272 773.981 571.166 773.981 571.166C771.686 572.416 768.539 570.741 768.153 570.545Z" fill="#FFB502"/>
<path d="M759.604 521.198C760.797 525.982 763.452 530.917 763.452 537.631C763.452 551.29 764.763 554.314 766.776 566.513C766.999 567.927 770.001 568.817 771.621 568.476C771.843 568.447 772.054 568.364 772.237 568.234C772.372 568.176 772.48 568.068 772.538 567.933C777.822 556.559 781.376 537.173 781.848 529.045C782.123 524.235 781.999 524.83 781.848 507.677C781.802 502.546 779.56 494.587 779.56 494.587L758.207 495.242C755.559 501.891 758.233 515.543 759.604 521.198Z" fill="#27355C"/>
<path d="M771.621 568.49C771.843 568.46 772.054 568.377 772.237 568.247C775.469 559.248 776.826 549.68 778.045 541.414C779.068 534.398 780.202 526.42 780.242 518.586C780.242 510.006 778.871 502.447 776.111 496.106C776.099 496.075 776.08 496.048 776.056 496.025C776.033 496.002 776.005 495.984 775.975 495.972C775.944 495.96 775.912 495.954 775.879 495.954C775.846 495.955 775.814 495.962 775.784 495.975C775.723 496.002 775.676 496.05 775.649 496.111C775.622 496.171 775.619 496.239 775.639 496.302C778.373 502.572 779.763 510.085 779.737 518.586C779.737 526.394 778.576 534.346 777.554 541.362C776.334 549.7 774.918 559.425 771.621 568.49Z" fill="#131313" fill-opacity="0.76"/>
<path d="M773.318 462.512C773.318 462.512 767.562 469.77 770.552 482.283C770.552 482.283 772.709 490.196 779.697 489.482L781.008 501.119C781.008 501.119 766.822 507.166 747.062 497.63C747.062 497.63 745.462 478.952 755.368 462.289C755.368 462.289 757.447 459.109 759.781 458.362C759.781 458.362 748.242 477.61 757.047 479.305C765.851 481 770.912 460.293 770.912 460.293L773.318 462.512Z" fill="#1C2745"/>
<path d="M762.318 453.932C762.318 453.932 760.803 460.293 762.055 461.785C763.308 463.278 769.922 461.785 769.634 459.397C769.369 457.416 768.946 455.459 768.369 453.546L762.318 453.932Z" fill="#FBC6B4"/>
<path d="M758.587 447.374C758.587 452.976 761.728 457.518 765.596 457.518C767.333 457.518 771.201 457.996 772.427 456.484C773.928 454.625 773.941 449.861 773.082 446.89C771.116 440.051 768.185 437.793 764.311 437.793C760.436 437.793 758.587 441.765 758.587 447.374Z" fill="#FBC6B4"/>
<path d="M765.222 458.173C762.783 458.297 758.712 457.453 756.463 452.466C754.405 447.884 755.591 440.306 760.194 437.976C761.659 437.256 763.264 436.867 764.897 436.835C766.529 436.804 768.149 437.13 769.641 437.793C773.876 439.802 773.332 442.374 772.473 442.793C770.69 443.67 769.287 442.276 769.641 444.71C769.916 446.582 769.772 450.725 768.028 450.974C766.284 451.222 764.796 451.229 765.222 453.749C765.537 455.66 767.674 458.042 765.222 458.173Z" fill="#000644"/>
<path d="M768.683 445.993C768.683 445.993 778.242 440.456 775.502 437.727C773.273 435.508 765.72 438.441 765.72 438.441L768.683 445.993Z" fill="#EDA503"/>
<path d="M771.771 441.032C770.854 446.111 766.487 448.886 755.513 451.811C755.513 451.811 749.986 441.994 757.112 436.759C763.393 432.151 772.374 437.675 771.771 441.032Z" fill="#FFB502"/>
<defs>
<radialGradient id="paint0_radial_2_3" cx="0" cy="0" r="1" gradientUnits="userSpaceOnUse" gradientTransform="translate(387.894 273.497) scale(379.953 458)">
<stop stop-color="#366491"/>
<stop offset="1" stop-color="#113F6D"/>
</radialGradient>
<linearGradient id="paint1_linear_2_3" x1="195.867" y1="335.644" x2="379.378" y2="641.222" gradientUnits="userSpaceOnUse">
<stop stop-color="#113F6D"/>
<stop offset="1" stop-color="white"/>
</linearGradient>
<linearGradient id="paint2_linear_2_3" x1="341.289" y1="447.933" x2="133.756" y2="287.6" gradientUnits="userSpaceOnUse">
<stop stop-color="#59BDEF"/>
<stop offset="1" stop-color="#7BDAFF"/>
</linearGradient>
<linearGradient id="paint3_linear_2_3" x1="342.111" y1="524.422" x2="458.244" y2="524.422" gradientUnits="userSpaceOnUse">
<stop stop-color="#2573BA"/>
<stop offset="1" stop-color="#0063AD"/>
</linearGradient>
<linearGradient id="paint4_linear_2_3" x1="195.978" y1="515.756" x2="342.111" y2="515.756" gradientUnits="userSpaceOnUse">
<stop stop-color="#3A9BD5"/>
<stop offset="1" stop-color="#2573BA"/>
</linearGradient>
<linearGradient id="paint5_linear_2_3" x1="5452.14" y1="4254.69" x2="7254.61" y2="4254.69" gradientUnits="userSpaceOnUse">
<stop stop-color="#2573BA"/>
<stop offset="1" stop-color="#0063AD"/>
</linearGradient>
<linearGradient id="paint6_linear_2_3" x1="6638.82" y1="4861.94" x2="8442.55" y2="4861.94" gradientUnits="userSpaceOnUse">
<stop stop-color="#2573BA"/>
<stop offset="1" stop-color="#0063AD"/>
</linearGradient>
<linearGradient id="paint7_linear_2_3" x1="7822.99" y1="5471.29" x2="9625.45" y2="5471.29" gradientUnits="userSpaceOnUse">
<stop stop-color="#2573BA"/>
<stop offset="1" stop-color="#0063AD"/>
</linearGradient>
<linearGradient id="paint8_linear_2_3" x1="149474" y1="9558.69" x2="146154" y2="11802" gradientUnits="userSpaceOnUse">
<stop stop-color="#3A9BD5"/>
<stop offset="1" stop-color="#2573BA"/>
</linearGradient>
<linearGradient id="paint9_linear_2_3" x1="493.844" y1="508.111" x2="386.289" y2="554.333" gradientUnits="userSpaceOnUse">
<stop stop-color="#7BDAFF"/>
<stop offset="1" stop-color="#59BDEF"/>
</linearGradient>
<linearGradient id="paint10_linear_2_3" x1="147043" y1="10135" x2="143532" y2="11171.7" gradientUnits="userSpaceOnUse">
<stop stop-color="#2573BA"/>
<stop offset="1" stop-color="#0063AD"/>
</linearGradient>
<linearGradient id="paint11_linear_2_3" x1="24764.3" y1="1763.87" x2="21729" y2="-2297.32" gradientUnits="userSpaceOnUse">
<stop stop-color="#59BDEF"/>
<stop offset="1" stop-color="#7BDAFF"/>
</linearGradient>
<linearGradient id="paint12_linear_2_3" x1="11277.1" y1="3036.38" x2="12590.9" y2="3036.38" gradientUnits="userSpaceOnUse">
<stop stop-color="#2573BA"/>
<stop offset="1" stop-color="#0063AD"/>
</linearGradient>
<linearGradient id="paint13_linear_2_3" x1="11911.9" y1="3179" x2="13992" y2="3179" gradientUnits="userSpaceOnUse">
<stop stop-color="#3A9BD5"/>
<stop offset="1" stop-color="#2573BA"/>
</linearGradient>
<linearGradient id="paint14_linear_2_3" x1="5574.68" y1="787.144" x2="5965.41" y2="787.144" gradientUnits="userSpaceOnUse">
<stop stop-color="#2573BA"/>
<stop offset="1" stop-color="#0063AD"/>
</linearGradient>
<linearGradient id="paint15_linear_2_3" x1="5837.44" y1="924.331" x2="6227.58" y2="924.331" gradientUnits="userSpaceOnUse">
<stop stop-color="#2573BA"/>
<stop offset="1" stop-color="#0063AD"/>
</linearGradient>
<linearGradient id="paint16_linear_2_3" x1="6108.33" y1="1062.54" x2="6499.05" y2="1062.54" gradientUnits="userSpaceOnUse">
<stop stop-color="#2573BA"/>
<stop offset="1" stop-color="#0063AD"/>
</linearGradient>
<radialGradient id="paint17_radial_2_3" cx="0" cy="0" r="1" gradientUnits="userSpaceOnUse" gradientTransform="translate(302.182 635.574) scale(136.549 136.649)">
<stop stop-color="#FCB454"/>
<stop offset="1" stop-color="#FF962E"/>
</radialGradient>
</defs>
</svg>
