<svg xmlns="http://www.w3.org/2000/svg" viewBox="0 0 32 32"><circle cx="16" cy="16" r="8" fill="#ffcd69"/><path fill="#80b6ff" d="M28,20H22.84a6.65,6.65,0,0,0-3.42.95h0a6.66,6.66,0,0,1-6.84,0h0A6.65,6.65,0,0,0,9.16,20H4a2,2,0,0,0-2,2v8H30V22A2,2,0,0,0,28,20Z"/><path fill="#6d6daa" d="M16 5a1 1 0 001-1V2a1 1 0 00-2 0V4A1 1 0 0016 5zM28 17h2a1 1 0 000-2H28a1 1 0 000 2zM2 17H4a1 1 0 000-2H2a1 1 0 000 2zM24.49 8.51a1 1 0 00.7-.29l1.42-1.41a1 1 0 00-1.42-1.42L23.78 6.81a1 1 0 000 1.41A1 1 0 0024.49 8.51zM6.81 8.22a1 1 0 001.41 0 1 1 0 000-1.41L6.81 5.39A1 1 0 005.39 6.81z"/><path fill="#6d6daa" d="M28,19H24.46A9,9,0,1,0,7.54,19H4a3,3,0,0,0-3,3v8a1,1,0,0,0,1,1H30a1,1,0,0,0,1-1V22A3,3,0,0,0,28,19ZM16,9a7,7,0,0,1,6.28,10,7.57,7.57,0,0,0-3.37,1.05,5.63,5.63,0,0,1-5.82,0A7.57,7.57,0,0,0,9.72,19,7,7,0,0,1,16,9ZM29,29H3V22a1,1,0,0,1,1-1H9.16a5.68,5.68,0,0,1,2.9.8,7.64,7.64,0,0,0,7.88,0,5.68,5.68,0,0,1,2.9-.8H28a1,1,0,0,1,1,1Z"/><path fill="#6d6daa" d="M27.16 23.41c-3.8-.61-5.33.71-5.5.86a1 1 0 00-.05 1.37 1 1 0 00.75.34 1 1 0 00.64-.23s1.05-.81 3.84-.37a1 1 0 10.32-2zM4.84 23.41a1 1 0 10.32 2c2.71-.43 3.77.32 3.83.37a1 1 0 001.35-1.48C10.17 24.12 8.64 22.81 4.84 23.41zM17 25.17a1.73 1.73 0 01-1.9 0A1 1 0 0014 26.83a3.65 3.65 0 004.1 0A1 1 0 0017 25.17z"/></svg>