<svg xmlns="http://www.w3.org/2000/svg" viewBox="0 0 64 64"><path fill="#f7a600" d="M32,10A21.11,21.11,0,0,0,11,31.18a21.46,21.46,0,0,0,.89,6.11,1,1,0,0,0,1,.71h38.3a1,1,0,0,0,1-.71A21.46,21.46,0,0,0,53,31.18,21.11,21.11,0,0,0,32,10Z"/><path fill="#00b1eb" d="M60.75,36.33a3.83,3.83,0,0,0-5.8,0,1.86,1.86,0,0,1-2.82,0,3.83,3.83,0,0,0-5.8,0,1.85,1.85,0,0,1-2.81,0,3.83,3.83,0,0,0-5.8,0,1.86,1.86,0,0,1-2.82,0,3.83,3.83,0,0,0-5.8,0,1.86,1.86,0,0,1-2.82,0,3.83,3.83,0,0,0-5.8,0,1.85,1.85,0,0,1-2.81,0,3.83,3.83,0,0,0-5.8,0,1.86,1.86,0,0,1-2.82,0,3.83,3.83,0,0,0-5.8,0A1,1,0,0,0,3,37v8a1,1,0,0,0,1,1H60a1,1,0,0,0,1-1V37A1,1,0,0,0,60.75,36.33Z"/><path fill="#f7a600" d="M57.86 21.26a1 1 0 0 0-1.31-.54l-3 1.24A1 1 0 0 0 54 23.89a1.09 1.09 0 0 0 .39-.08l3-1.24A1 1 0 0 0 57.86 21.26zM10.43 22l-3-1.24a1 1 0 0 0-.76 1.85l3 1.24a1.08 1.08 0 0 0 .38.08A1 1 0 0 0 10.43 22zM22.18 6.83a1 1 0 1 0-1.83.79l1.29 3a1 1 0 0 0 .91.6.92.92 0 0 0 .4-.08 1 1 0 0 0 .52-1.31zM43.3 6.38A1 1 0 0 0 42 6.89l-1.15 2.6a1 1 0 0 0 .52 1.31.93.93 0 0 0 .4.09 1 1 0 0 0 .91-.6L43.81 7.7A1 1 0 0 0 43.3 6.38z"/><path fill="#fff042" d="M50.38 12.2l-2.09 2.09a1 1 0 0 0 0 1.42 1 1 0 0 0 1.42 0l2.09-2.09a1 1 0 1 0-1.42-1.42zM13.62 12.2a1 1 0 0 0-1.42 1.42l2.09 2.09a1 1 0 0 0 1.42 0 1 1 0 0 0 0-1.42zM59 31H55a1 1 0 0 0 0 2h4a1 1 0 0 0 0-2zM9 31H5a1 1 0 0 0 0 2H9a1 1 0 0 0 0-2zM32 3a1 1 0 0 0-1 1V8a1 1 0 0 0 2 0V4A1 1 0 0 0 32 3z"/><path fill="#41c0f0" d="M60.75,44.33a3.83,3.83,0,0,0-5.8,0,1.86,1.86,0,0,1-2.82,0,3.83,3.83,0,0,0-5.8,0,1.85,1.85,0,0,1-2.81,0,3.83,3.83,0,0,0-5.8,0,1.86,1.86,0,0,1-2.82,0,3.83,3.83,0,0,0-5.8,0,1.86,1.86,0,0,1-2.82,0,3.83,3.83,0,0,0-5.8,0,1.85,1.85,0,0,1-2.81,0,3.83,3.83,0,0,0-5.8,0,1.86,1.86,0,0,1-2.82,0,3.83,3.83,0,0,0-5.8,0A1,1,0,0,0,3,45v8a1,1,0,0,0,1,1H60a1,1,0,0,0,1-1V45A1,1,0,0,0,60.75,44.33Z"/><path fill="#71cbf4" d="M60.75,52.33a3.83,3.83,0,0,0-5.8,0,1.86,1.86,0,0,1-2.82,0,3.83,3.83,0,0,0-5.8,0,1.85,1.85,0,0,1-2.81,0,3.83,3.83,0,0,0-5.8,0,1.86,1.86,0,0,1-2.82,0,3.83,3.83,0,0,0-5.8,0,1.86,1.86,0,0,1-2.82,0,3.83,3.83,0,0,0-5.8,0,1.85,1.85,0,0,1-2.81,0,3.83,3.83,0,0,0-5.8,0,1.86,1.86,0,0,1-2.82,0,3.83,3.83,0,0,0-5.8,0A1,1,0,0,0,3,53v7a1,1,0,0,0,1,1H60a1,1,0,0,0,1-1V53A1,1,0,0,0,60.75,52.33Z"/><path fill="#231f20" d="M53.54 55a3.86 3.86 0 0 1-2.9-1.33 1.86 1.86 0 0 0-2.82 0 3.83 3.83 0 0 1-5.8 0 1.85 1.85 0 0 0-2.81 0 3.83 3.83 0 0 1-5.8 0 1.86 1.86 0 0 0-2.82 0 3.83 3.83 0 0 1-5.8 0 1.85 1.85 0 0 0-2.81 0 3.83 3.83 0 0 1-5.8 0 1.86 1.86 0 0 0-2.82 0 3.83 3.83 0 0 1-5.8 0 1.85 1.85 0 0 0-2.81 0 1 1 0 0 1-1.5-1.34 3.83 3.83 0 0 1 5.8 0 1.86 1.86 0 0 0 2.82 0 3.83 3.83 0 0 1 5.8 0 1.85 1.85 0 0 0 2.81 0 3.83 3.83 0 0 1 5.8 0 1.86 1.86 0 0 0 2.82 0 3.83 3.83 0 0 1 5.8 0 1.86 1.86 0 0 0 2.82 0 3.83 3.83 0 0 1 5.8 0 1.85 1.85 0 0 0 2.81 0 3.83 3.83 0 0 1 5.8 0 1.86 1.86 0 0 0 2.82 0 3.83 3.83 0 0 1 5.8 0 1 1 0 0 1-1.5 1.34 1.85 1.85 0 0 0-2.81 0A3.86 3.86 0 0 1 53.54 55zM53.54 39a3.86 3.86 0 0 1-2.9-1.33 1.86 1.86 0 0 0-2.82 0 3.83 3.83 0 0 1-5.8 0 1.85 1.85 0 0 0-2.81 0 3.83 3.83 0 0 1-5.8 0 1.86 1.86 0 0 0-2.82 0 3.83 3.83 0 0 1-5.8 0 1.85 1.85 0 0 0-2.81 0 3.83 3.83 0 0 1-5.8 0 1.86 1.86 0 0 0-2.82 0 3.83 3.83 0 0 1-5.8 0 1.85 1.85 0 0 0-2.81 0 1 1 0 0 1-1.5-1.34 3.83 3.83 0 0 1 5.8 0 1.86 1.86 0 0 0 2.82 0 3.83 3.83 0 0 1 5.8 0 1.85 1.85 0 0 0 2.81 0 3.83 3.83 0 0 1 5.8 0 1.86 1.86 0 0 0 2.82 0 3.83 3.83 0 0 1 5.8 0 1.86 1.86 0 0 0 2.82 0 3.83 3.83 0 0 1 5.8 0 1.85 1.85 0 0 0 2.81 0 3.83 3.83 0 0 1 5.8 0 1.86 1.86 0 0 0 2.82 0 3.83 3.83 0 0 1 5.8 0 1 1 0 0 1-1.5 1.34 1.85 1.85 0 0 0-2.81 0A3.86 3.86 0 0 1 53.54 39zM53.54 47a3.86 3.86 0 0 1-2.9-1.33 1.86 1.86 0 0 0-2.82 0 3.83 3.83 0 0 1-5.8 0 1.85 1.85 0 0 0-2.81 0 3.83 3.83 0 0 1-5.8 0 1.86 1.86 0 0 0-2.82 0 3.83 3.83 0 0 1-5.8 0 1.85 1.85 0 0 0-2.81 0 3.83 3.83 0 0 1-5.8 0 1.86 1.86 0 0 0-2.82 0 3.83 3.83 0 0 1-5.8 0 1.85 1.85 0 0 0-2.81 0 1 1 0 0 1-1.5-1.34 3.83 3.83 0 0 1 5.8 0 1.86 1.86 0 0 0 2.82 0 3.83 3.83 0 0 1 5.8 0 1.85 1.85 0 0 0 2.81 0 3.83 3.83 0 0 1 5.8 0 1.86 1.86 0 0 0 2.82 0 3.83 3.83 0 0 1 5.8 0 1.86 1.86 0 0 0 2.82 0 3.83 3.83 0 0 1 5.8 0 1.85 1.85 0 0 0 2.81 0 3.83 3.83 0 0 1 5.8 0 1.86 1.86 0 0 0 2.82 0 3.83 3.83 0 0 1 5.8 0 1 1 0 0 1-1.5 1.34 1.85 1.85 0 0 0-2.81 0A3.86 3.86 0 0 1 53.54 47z"/><path fill="#231f20" d="M60,61H4a1,1,0,0,1-1-1V37a1,1,0,0,1,2,0V59H59V37a1,1,0,0,1,2,0V60A1,1,0,0,1,60,61Z"/><path fill="#231f20" d="M51.15 38a1 1 0 0 1-1-1.29A19.19 19.19 0 0 0 32 12 19.19 19.19 0 0 0 13.81 36.71 1 1 0 0 1 13.14 38a1 1 0 0 1-1.25-.67A21.46 21.46 0 0 1 11 31.18a21 21 0 1 1 42 0 21.46 21.46 0 0 1-.89 6.11A1 1 0 0 1 51.15 38zM54 23.89A1 1 0 0 1 53.57 22l3-1.24a1 1 0 0 1 .77 1.85l-3 1.24A1.09 1.09 0 0 1 54 23.89z"/><path fill="#231f20" d="M10 23.9a1.08 1.08 0 0 1-.38-.08l-3-1.24a1 1 0 0 1 .76-1.85l3 1.24A1 1 0 0 1 10 23.9zM22.55 11.19a1 1 0 0 1-.91-.6l-1.29-3a1 1 0 1 1 1.83-.79l1.29 3A1 1 0 0 1 23 11.11.92.92 0 0 1 22.55 11.19zM41.75 10.89a.93.93 0 0 1-.4-.09 1 1 0 0 1-.52-1.31L42 6.89a1 1 0 0 1 1.83.81l-1.15 2.59A1 1 0 0 1 41.75 10.89zM49 16a1 1 0 0 1-.71-.29 1 1 0 0 1 0-1.42l2.09-2.09a1 1 0 1 1 1.42 1.42l-2.09 2.09A1 1 0 0 1 49 16zM15 16a1 1 0 0 1-.71-.29L12.2 13.62a1 1 0 0 1 1.42-1.42l2.09 2.09a1 1 0 0 1 0 1.42A1 1 0 0 1 15 16zM59 33H55a1 1 0 0 1 0-2h4a1 1 0 0 1 0 2zM9 33H5a1 1 0 0 1 0-2H9a1 1 0 0 1 0 2zM32 9a1 1 0 0 1-1-1V4a1 1 0 0 1 2 0V8A1 1 0 0 1 32 9z"/></svg>